{
	"asset":{
		"generator":"Khronos glTF Blender I/O v4.4.55",
		"version":"2.0"
	},
	"extensionsUsed":[
		"KHR_materials_specular",
		"KHR_materials_ior"
	],
	"scene":0,
	"scenes":[
		{
			"name":"Scene",
			"nodes":[
				0
			]
		}
	],
	"nodes":[
		{
			"mesh":0,
			"name":"mk_apple"
		}
	],
	"materials":[
		{
			"doubleSided":true,
			"extensions":{
				"KHR_materials_specular":{
					"specularFactor":0.4424242377281189
				},
				"KHR_materials_ior":{
					"ior":1.4500000476837158
				}
			},
			"name":"Apple1_u1_v1.002",
			"normalTexture":{
				"index":0,
				"scale":0.75
			},
			"occlusionTexture":{
				"index":1,
				"texCoord":1
			},
			"pbrMetallicRoughness":{
				"baseColorTexture":{
					"index":2
				},
				"metallicFactor":0,
				"metallicRoughnessTexture":{
					"index":3
				}
			}
		}
	],
	"meshes":[
		{
			"name":"Apple1.002",
			"primitives":[
				{
					"attributes":{
						"POSITION":0,
						"NORMAL":1,
						"TEXCOORD_0":2,
						"TEXCOORD_1":3
					},
					"indices":4,
					"material":0
				}
			]
		}
	],
	"textures":[
		{
			"sampler":0,
			"source":0
		},
		{
			"sampler":0,
			"source":1
		},
		{
			"sampler":0,
			"source":2
		},
		{
			"sampler":0,
			"source":3
		}
	],
	"images":[
		{
			"mimeType":"image/png",
			"name":"Apple1_u1_v1_normal",
			"uri":"apple/Apple1_u1_v1_normal.png"
		},
		{
			"mimeType":"image/png",
			"name":"mk_apple_lightmap",
			"uri":"apple/mk_apple_lightmap.png"
		},
		{
			"mimeType":"image/jpeg",
			"name":"Apple1_u1_v1_diffuse",
			"uri":"apple/Apple1_u1_v1_diffuse.jpg"
		},
		{
			"mimeType":"image/png",
			"name":"Floor Dirt  2",
			"uri":"apple/Floor%20Dirt%20%202.png"
		}
	],
	"accessors":[
		{
			"bufferView":0,
			"componentType":5126,
			"count":4237,
			"max":[
				0.028225800022482872,
				0.0370633564889431,
				0.027015237137675285
			],
			"min":[
				-0.027704939246177673,
				-0.024103526026010513,
				-0.026368623599410057
			],
			"type":"VEC3"
		},
		{
			"bufferView":1,
			"componentType":5126,
			"count":4237,
			"type":"VEC3"
		},
		{
			"bufferView":2,
			"componentType":5126,
			"count":4237,
			"type":"VEC2"
		},
		{
			"bufferView":3,
			"componentType":5126,
			"count":4237,
			"type":"VEC2"
		},
		{
			"bufferView":4,
			"componentType":5123,
			"count":19764,
			"type":"SCALAR"
		}
	],
	"bufferViews":[
		{
			"buffer":0,
			"byteLength":50844,
			"byteOffset":0,
			"target":34962
		},
		{
			"buffer":0,
			"byteLength":50844,
			"byteOffset":50844,
			"target":34962
		},
		{
			"buffer":0,
			"byteLength":33896,
			"byteOffset":101688,
			"target":34962
		},
		{
			"buffer":0,
			"byteLength":33896,
			"byteOffset":135584,
			"target":34962
		},
		{
			"buffer":0,
			"byteLength":39528,
			"byteOffset":169480,
			"target":34963
		}
	],
	"samplers":[
		{
			"magFilter":9729,
			"minFilter":9987
		}
	],
	"buffers":[
		{
			"byteLength":209008,
			"uri":"apple.bin"
		}
	]
}
