{
	"asset":{
		"generator":"Khronos glTF Blender I/O v4.4.55",
		"version":"2.0"
	},
	"extensionsUsed":[
		"KHR_materials_specular"
	],
	"scene":0,
	"scenes":[
		{
			"name":"Scene",
			"nodes":[
				0
			]
		}
	],
	"nodes":[
		{
			"mesh":0,
			"name":"mk_banana"
		}
	],
	"materials":[
		{
			"doubleSided":true,
			"extensions":{
				"KHR_materials_specular":{
					"specularColorFactor":[
						2.0,
						2.0,
						2.0
					]
				}
			},
			"name":"mk_banana",
			"normalTexture":{
				"index":0
			},
			"occlusionTexture":{
				"index":1,
				"texCoord":1
			},
			"pbrMetallicRoughness":{
				"baseColorTexture":{
					"index":2
				},
				"metallicFactor":0,
				"metallicRoughnessTexture":{
					"index":3
				}
			}
		}
	],
	"meshes":[
		{
			"name":"Aset_edible_fruits_S_tklkaixiw_LOD2",
			"primitives":[
				{
					"attributes":{
						"POSITION":0,
						"NORMAL":1,
						"TEXCOORD_0":2,
						"TEXCOORD_1":3
					},
					"indices":4,
					"material":0
				}
			]
		}
	],
	"textures":[
		{
			"sampler":0,
			"source":0
		},
		{
			"sampler":0,
			"source":1
		},
		{
			"sampler":0,
			"source":2
		},
		{
			"sampler":0,
			"source":3
		}
	],
	"images":[
		{
			"mimeType":"image/jpeg",
			"name":"Banana_tklkaixiw_Mid_2K_Normal",
			"uri":"banana/Banana_tklkaixiw_Mid_2K_Normal.jpg"
		},
		{
			"mimeType":"image/png",
			"name":"mk_banana_lightmap",
			"uri":"banana/mk_banana_lightmap.png"
		},
		{
			"mimeType":"image/jpeg",
			"name":"Banana_tklkaixiw_Mid_2K_BaseColor",
			"uri":"banana/Banana_tklkaixiw_Mid_2K_BaseColor.jpg"
		},
		{
			"mimeType":"image/png",
			"name":"Banana_tklkaixiw_Mid_2K_Roughness",
			"uri":"banana/Banana_tklkaixiw_Mid_2K_Roughness.png"
		}
	],
	"accessors":[
		{
			"bufferView":0,
			"componentType":5126,
			"count":815,
			"max":[
				0.03707467019557953,
				0.0413777120411396,
				0.0075074369087815285
			],
			"min":[
				-0.026779934763908386,
				-0.028259402140975,
				-0.014337616972625256
			],
			"type":"VEC3"
		},
		{
			"bufferView":1,
			"componentType":5126,
			"count":815,
			"type":"VEC3"
		},
		{
			"bufferView":2,
			"componentType":5126,
			"count":815,
			"type":"VEC2"
		},
		{
			"bufferView":3,
			"componentType":5126,
			"count":815,
			"type":"VEC2"
		},
		{
			"bufferView":4,
			"componentType":5123,
			"count":3573,
			"type":"SCALAR"
		}
	],
	"bufferViews":[
		{
			"buffer":0,
			"byteLength":9780,
			"byteOffset":0,
			"target":34962
		},
		{
			"buffer":0,
			"byteLength":9780,
			"byteOffset":9780,
			"target":34962
		},
		{
			"buffer":0,
			"byteLength":6520,
			"byteOffset":19560,
			"target":34962
		},
		{
			"buffer":0,
			"byteLength":6520,
			"byteOffset":26080,
			"target":34962
		},
		{
			"buffer":0,
			"byteLength":7146,
			"byteOffset":32600,
			"target":34963
		}
	],
	"samplers":[
		{
			"magFilter":9729,
			"minFilter":9987
		}
	],
	"buffers":[
		{
			"byteLength":39748,
			"uri":"banana.bin"
		}
	]
}
