{
	"asset":{
		"generator":"Khronos glTF Blender I/O v4.4.55",
		"version":"2.0"
	},
	"scene":0,
	"scenes":[
		{
			"name":"Scene",
			"nodes":[
				0
			]
		}
	],
	"nodes":[
		{
			"mesh":0,
			"name":"mk_fish"
		}
	],
	"materials":[
		{
			"doubleSided":true,
			"name":"mk_Fish",
			"occlusionTexture":{
				"index":0
			},
			"pbrMetallicRoughness":{
				"baseColorTexture":{
					"index":1
				},
				"metallicFactor":0.2151295691728592,
				"roughnessFactor":0.3824124336242676
			}
		}
	],
	"meshes":[
		{
			"name":"Line01_02 - Default_0.001",
			"primitives":[
				{
					"attributes":{
						"POSITION":0,
						"NORMAL":1,
						"TEXCOORD_0":2,
						"TEXCOORD_1":3
					},
					"indices":4,
					"material":0
				}
			]
		}
	],
	"textures":[
		{
			"sampler":0,
			"source":0
		},
		{
			"sampler":0,
			"source":1
		}
	],
	"images":[
		{
			"mimeType":"image/png",
			"name":"mk_Fishes_lightmap",
			"uri":"fish/mk_Fishes_lightmap.png"
		},
		{
			"mimeType":"image/jpeg",
			"name":"Image_0",
			"uri":"fish/Image_0.jpg"
		}
	],
	"accessors":[
		{
			"bufferView":0,
			"componentType":5126,
			"count":1469,
			"max":[
				0.08904512226581573,
				0.028752654790878296,
				0.014803646132349968
			],
			"min":[
				-0.056001145392656326,
				-0.028603672981262207,
				-0.017914732918143272
			],
			"type":"VEC3"
		},
		{
			"bufferView":1,
			"componentType":5126,
			"count":1469,
			"type":"VEC3"
		},
		{
			"bufferView":2,
			"componentType":5126,
			"count":1469,
			"type":"VEC2"
		},
		{
			"bufferView":3,
			"componentType":5126,
			"count":1469,
			"type":"VEC2"
		},
		{
			"bufferView":4,
			"componentType":5123,
			"count":6564,
			"type":"SCALAR"
		}
	],
	"bufferViews":[
		{
			"buffer":0,
			"byteLength":17628,
			"byteOffset":0,
			"target":34962
		},
		{
			"buffer":0,
			"byteLength":17628,
			"byteOffset":17628,
			"target":34962
		},
		{
			"buffer":0,
			"byteLength":11752,
			"byteOffset":35256,
			"target":34962
		},
		{
			"buffer":0,
			"byteLength":11752,
			"byteOffset":47008,
			"target":34962
		},
		{
			"buffer":0,
			"byteLength":13128,
			"byteOffset":58760,
			"target":34963
		}
	],
	"samplers":[
		{
			"magFilter":9729,
			"minFilter":9987
		}
	],
	"buffers":[
		{
			"byteLength":71888,
			"uri":"fish.bin"
		}
	]
}
