{
	"asset":{
		"generator":"Khronos glTF Blender I/O v4.4.55",
		"version":"2.0"
	},
	"extensionsUsed":[
		"KHR_materials_specular",
		"KHR_materials_ior"
	],
	"scene":0,
	"scenes":[
		{
			"name":"Scene",
			"nodes":[
				0
			]
		}
	],
	"nodes":[
		{
			"mesh":0,
			"name":"mk_apple_bad",
			"rotation":[
				-0.15156158804893494,
				-0.7744761109352112,
				-0.09211813658475876,
				0.6072314977645874
			],
			"translation":[
				-0.0006357196252793074,
				0,
				-0.00101715128403157
			]
		}
	],
	"materials":[
		{
			"doubleSided":true,
			"emissiveFactor":[
				1,
				1,
				1
			],
			"emissiveTexture":{
				"index":0
			},
			"extensions":{
				"KHR_materials_specular":{
					"specularFactor":0.4424242377281189
				},
				"KHR_materials_ior":{
					"ior":1.4500000476837158
				}
			},
			"name":"Apple1_rotten",
			"normalTexture":{
				"index":1
			},
			"pbrMetallicRoughness":{
				"baseColorTexture":{
					"index":2
				},
				"metallicFactor":0,
				"metallicRoughnessTexture":{
					"index":3
				}
			}
		}
	],
	"meshes":[
		{
			"name":"Apple1.003",
			"primitives":[
				{
					"attributes":{
						"POSITION":0,
						"NORMAL":1,
						"TEXCOORD_0":2
					},
					"indices":3,
					"material":0
				}
			]
		}
	],
	"textures":[
		{
			"sampler":0,
			"source":0
		},
		{
			"sampler":0,
			"source":1
		},
		{
			"sampler":0,
			"source":0
		},
		{
			"sampler":0,
			"source":2
		}
	],
	"images":[
		{
			"mimeType":"image/png",
			"name":"Apple1_BaseColor",
			"uri":"apple/Apple1_BaseColor.png"
		},
		{
			"mimeType":"image/png",
			"name":"Apple1_Normal",
			"uri":"apple/Apple1_Normal.png"
		},
		{
			"mimeType":"image/png",
			"name":"Apple1_Roughness",
			"uri":"apple/Apple1_Roughness.png"
		}
	],
	"accessors":[
		{
			"bufferView":0,
			"componentType":5126,
			"count":4233,
			"max":[
				0.025978319346904755,
				0.03348774462938309,
				0.028144946321845055
			],
			"min":[
				-0.02770334668457508,
				-0.025615952908992767,
				-0.029632670804858208
			],
			"type":"VEC3"
		},
		{
			"bufferView":1,
			"componentType":5126,
			"count":4233,
			"type":"VEC3"
		},
		{
			"bufferView":2,
			"componentType":5126,
			"count":4233,
			"type":"VEC2"
		},
		{
			"bufferView":3,
			"componentType":5123,
			"count":19764,
			"type":"SCALAR"
		}
	],
	"bufferViews":[
		{
			"buffer":0,
			"byteLength":50796,
			"byteOffset":0,
			"target":34962
		},
		{
			"buffer":0,
			"byteLength":50796,
			"byteOffset":50796,
			"target":34962
		},
		{
			"buffer":0,
			"byteLength":33864,
			"byteOffset":101592,
			"target":34962
		},
		{
			"buffer":0,
			"byteLength":39528,
			"byteOffset":135456,
			"target":34963
		}
	],
	"samplers":[
		{
			"magFilter":9729,
			"minFilter":9987
		}
	],
	"buffers":[
		{
			"byteLength":174984,
			"uri":"apple-bad.bin"
		}
	]
}
