{
	"asset":{
		"generator":"Khronos glTF Blender I/O v4.4.55",
		"version":"2.0"
	},
	"extensionsUsed":[
		"KHR_materials_specular",
		"KHR_materials_ior"
	],
	"scene":0,
	"scenes":[
		{
			"name":"Scene",
			"nodes":[
				0
			]
		}
	],
	"nodes":[
		{
			"mesh":0,
			"name":"mk_apple_bad"
		}
	],
	"materials":[
		{
			"doubleSided":true,
			"extensions":{
				"KHR_materials_specular":{
					"specularFactor":0.4424242377281189
				},
				"KHR_materials_ior":{
					"ior":1.4500000476837158
				}
			},
			"name":"Apple1_rotten",
			"normalTexture":{
				"index":0
			},
			"occlusionTexture":{
				"index":1,
				"texCoord":1
			},
			"pbrMetallicRoughness":{
				"baseColorTexture":{
					"index":2
				},
				"metallicFactor":0,
				"metallicRoughnessTexture":{
					"index":3
				}
			}
		}
	],
	"meshes":[
		{
			"name":"Apple1.003",
			"primitives":[
				{
					"attributes":{
						"POSITION":0,
						"NORMAL":1,
						"TEXCOORD_0":2,
						"TEXCOORD_1":3
					},
					"indices":4,
					"material":0
				}
			]
		}
	],
	"textures":[
		{
			"sampler":0,
			"source":0
		},
		{
			"sampler":0,
			"source":1
		},
		{
			"sampler":0,
			"source":2
		},
		{
			"sampler":0,
			"source":3
		}
	],
	"images":[
		{
			"mimeType":"image/png",
			"name":"Apple1_Normal",
			"uri":"apple/Apple1_Normal.png"
		},
		{
			"mimeType":"image/png",
			"name":"mk_apple_bad_lightmap",
			"uri":"apple/mk_apple_bad_lightmap.png"
		},
		{
			"mimeType":"image/png",
			"name":"Apple1_BaseColor",
			"uri":"apple/Apple1_BaseColor.png"
		},
		{
			"mimeType":"image/png",
			"name":"Apple1_Roughness",
			"uri":"apple/Apple1_Roughness.png"
		}
	],
	"accessors":[
		{
			"bufferView":0,
			"componentType":5126,
			"count":4239,
			"max":[
				0.028088444843888283,
				0.03708603233098984,
				0.027122192084789276
			],
			"min":[
				-0.02773389406502247,
				-0.024080844596028328,
				-0.026292365044355392
			],
			"type":"VEC3"
		},
		{
			"bufferView":1,
			"componentType":5126,
			"count":4239,
			"type":"VEC3"
		},
		{
			"bufferView":2,
			"componentType":5126,
			"count":4239,
			"type":"VEC2"
		},
		{
			"bufferView":3,
			"componentType":5126,
			"count":4239,
			"type":"VEC2"
		},
		{
			"bufferView":4,
			"componentType":5123,
			"count":19764,
			"type":"SCALAR"
		}
	],
	"bufferViews":[
		{
			"buffer":0,
			"byteLength":50868,
			"byteOffset":0,
			"target":34962
		},
		{
			"buffer":0,
			"byteLength":50868,
			"byteOffset":50868,
			"target":34962
		},
		{
			"buffer":0,
			"byteLength":33912,
			"byteOffset":101736,
			"target":34962
		},
		{
			"buffer":0,
			"byteLength":33912,
			"byteOffset":135648,
			"target":34962
		},
		{
			"buffer":0,
			"byteLength":39528,
			"byteOffset":169560,
			"target":34963
		}
	],
	"samplers":[
		{
			"magFilter":9729,
			"minFilter":9987
		}
	],
	"buffers":[
		{
			"byteLength":209088,
			"uri":"apple-bad.bin"
		}
	]
}
