{
	"asset":{
		"generator":"Khronos glTF Blender I/O v4.4.55",
		"version":"2.0"
	},
	"extensionsUsed":[
		"KHR_materials_specular",
		"KHR_materials_ior"
	],
	"scene":0,
	"scenes":[
		{
			"name":"Scene",
			"nodes":[
				0
			]
		}
	],
	"nodes":[
		{
			"mesh":0,
			"name":"mk_apple",
			"rotation":[
				-0.4152757525444031,
				0.8894448280334473,
				0.18766501545906067,
				0.034868501126766205
			],
			"scale":[
				0.002817197935655713,
				0.0028171974699944258,
				0.002817197935655713
			]
		}
	],
	"materials":[
		{
			"doubleSided":true,
			"emissiveFactor":[
				1,
				1,
				1
			],
			"emissiveTexture":{
				"index":0
			},
			"extensions":{
				"KHR_materials_specular":{
					"specularFactor":0.4424242377281189
				},
				"KHR_materials_ior":{
					"ior":1.4500000476837158
				}
			},
			"name":"mk_Apples",
			"normalTexture":{
				"index":1,
				"scale":0.75
			},
			"pbrMetallicRoughness":{
				"baseColorTexture":{
					"index":2
				},
				"metallicFactor":0,
				"metallicRoughnessTexture":{
					"index":3
				}
			}
		}
	],
	"meshes":[
		{
			"name":"Apples_01.002",
			"primitives":[
				{
					"attributes":{
						"POSITION":0,
						"NORMAL":1,
						"TEXCOORD_0":2,
						"TEXCOORD_1":3
					},
					"indices":4,
					"material":0
				}
			]
		}
	],
	"textures":[
		{
			"sampler":0,
			"source":0
		},
		{
			"sampler":0,
			"source":1
		},
		{
			"sampler":0,
			"source":0
		},
		{
			"sampler":0,
			"source":2
		}
	],
	"images":[
		{
			"mimeType":"image/jpeg",
			"name":"Apple1_u1_v1_diffuse",
			"uri":"appleTextures/Apple1_u1_v1_diffuse.jpg"
		},
		{
			"mimeType":"image/png",
			"name":"Apple1_u1_v1_normal",
			"uri":"appleTextures/Apple1_u1_v1_normal.png"
		},
		{
			"mimeType":"image/png",
			"name":"Floor Dirt  2",
			"uri":"appleTextures/Floor%20Dirt%20%202.png"
		}
	],
	"accessors":[
		{
			"bufferView":0,
			"componentType":5126,
			"count":603,
			"max":[
				9.655391693115234,
				10.162738800048828,
				10.279129028320312
			],
			"min":[
				-11.106182098388672,
				-9.846317291259766,
				-9.529891967773438
			],
			"type":"VEC3"
		},
		{
			"bufferView":1,
			"componentType":5126,
			"count":603,
			"type":"VEC3"
		},
		{
			"bufferView":2,
			"componentType":5126,
			"count":603,
			"type":"VEC2"
		},
		{
			"bufferView":3,
			"componentType":5126,
			"count":603,
			"type":"VEC2"
		},
		{
			"bufferView":4,
			"componentType":5123,
			"count":1674,
			"type":"SCALAR"
		}
	],
	"bufferViews":[
		{
			"buffer":0,
			"byteLength":7236,
			"byteOffset":0,
			"target":34962
		},
		{
			"buffer":0,
			"byteLength":7236,
			"byteOffset":7236,
			"target":34962
		},
		{
			"buffer":0,
			"byteLength":4824,
			"byteOffset":14472,
			"target":34962
		},
		{
			"buffer":0,
			"byteLength":4824,
			"byteOffset":19296,
			"target":34962
		},
		{
			"buffer":0,
			"byteLength":3348,
			"byteOffset":24120,
			"target":34963
		}
	],
	"samplers":[
		{
			"magFilter":9729,
			"minFilter":9987
		}
	],
	"buffers":[
		{
			"byteLength":27468,
			"uri":"apple.bin"
		}
	]
}
