{
	"asset":{
		"generator":"Khronos glTF Blender I/O v4.4.55",
		"version":"2.0"
	},
	"extensionsUsed":[
		"KHR_materials_specular"
	],
	"scene":0,
	"scenes":[
		{
			"name":"Scene",
			"nodes":[
				0
			]
		}
	],
	"nodes":[
		{
			"mesh":0,
			"name":"mk_banana",
			"rotation":[
				0,
				0.3798302412033081,
				0,
				0.9250563383102417
			]
		}
	],
	"materials":[
		{
			"doubleSided":true,
			"emissiveFactor":[
				1,
				1,
				1
			],
			"emissiveTexture":{
				"index":0
			},
			"extensions":{
				"KHR_materials_specular":{
					"specularColorFactor":[
						2.0,
						2.0,
						2.0
					]
				}
			},
			"name":"mk_banana",
			"normalTexture":{
				"index":1
			},
			"pbrMetallicRoughness":{
				"baseColorTexture":{
					"index":2
				},
				"metallicFactor":0,
				"metallicRoughnessTexture":{
					"index":3
				}
			}
		}
	],
	"meshes":[
		{
			"name":"Aset_edible_fruits_S_tklkaixiw_LOD2",
			"primitives":[
				{
					"attributes":{
						"POSITION":0,
						"NORMAL":1,
						"TEXCOORD_0":2
					},
					"indices":3,
					"material":0
				}
			]
		}
	],
	"textures":[
		{
			"sampler":0,
			"source":0
		},
		{
			"sampler":0,
			"source":1
		},
		{
			"sampler":0,
			"source":0
		},
		{
			"sampler":0,
			"source":2
		}
	],
	"images":[
		{
			"mimeType":"image/jpeg",
			"name":"Banana_tklkaixiw_Mid_2K_BaseColor",
			"uri":"bananaTextures/Banana_tklkaixiw_Mid_2K_BaseColor.jpg"
		},
		{
			"mimeType":"image/jpeg",
			"name":"Banana_tklkaixiw_Mid_2K_Normal",
			"uri":"bananaTextures/Banana_tklkaixiw_Mid_2K_Normal.jpg"
		},
		{
			"mimeType":"image/png",
			"name":"Banana_tklkaixiw_Mid_2K_Roughness",
			"uri":"bananaTextures/Banana_tklkaixiw_Mid_2K_Roughness.png"
		}
	],
	"accessors":[
		{
			"bufferView":0,
			"componentType":5126,
			"count":815,
			"max":[
				0.029172198846936226,
				0.04055989533662796,
				0.02483215741813183
			],
			"min":[
				-0.01960996724665165,
				-0.02907721884548664,
				-0.02458926849067211
			],
			"type":"VEC3"
		},
		{
			"bufferView":1,
			"componentType":5126,
			"count":815,
			"type":"VEC3"
		},
		{
			"bufferView":2,
			"componentType":5126,
			"count":815,
			"type":"VEC2"
		},
		{
			"bufferView":3,
			"componentType":5123,
			"count":3573,
			"type":"SCALAR"
		}
	],
	"bufferViews":[
		{
			"buffer":0,
			"byteLength":9780,
			"byteOffset":0,
			"target":34962
		},
		{
			"buffer":0,
			"byteLength":9780,
			"byteOffset":9780,
			"target":34962
		},
		{
			"buffer":0,
			"byteLength":6520,
			"byteOffset":19560,
			"target":34962
		},
		{
			"buffer":0,
			"byteLength":7146,
			"byteOffset":26080,
			"target":34963
		}
	],
	"samplers":[
		{
			"magFilter":9729,
			"minFilter":9987
		}
	],
	"buffers":[
		{
			"byteLength":33228,
			"uri":"banana.bin"
		}
	]
}
