{
	"asset":{
		"generator":"Khronos glTF Blender I/O v4.4.55",
		"version":"2.0"
	},
	"extensionsUsed":[
		"KHR_materials_specular"
	],
	"scene":0,
	"scenes":[
		{
			"name":"Scene",
			"nodes":[
				0
			]
		}
	],
	"nodes":[
		{
			"mesh":0,
			"name":"mk_banana_bad"
		}
	],
	"materials":[
		{
			"doubleSided":true,
			"extensions":{
				"KHR_materials_specular":{
					"specularColorFactor":[
						2.0,
						2.0,
						2.0
					]
				}
			},
			"name":"Banana_overipe",
			"normalTexture":{
				"index":0
			},
			"occlusionTexture":{
				"index":1,
				"texCoord":1
			},
			"pbrMetallicRoughness":{
				"baseColorTexture":{
					"index":2
				},
				"metallicFactor":0
			}
		}
	],
	"meshes":[
		{
			"name":"Aset_edible_fruits_S_tklkaixiw_LOD2.001",
			"primitives":[
				{
					"attributes":{
						"POSITION":0,
						"NORMAL":1,
						"TEXCOORD_0":2,
						"TEXCOORD_1":3
					},
					"indices":4,
					"material":0
				}
			]
		}
	],
	"textures":[
		{
			"sampler":0,
			"source":0
		},
		{
			"sampler":0,
			"source":1
		},
		{
			"sampler":0,
			"source":2
		}
	],
	"images":[
		{
			"mimeType":"image/png",
			"name":"Banana_overipe_Normal",
			"uri":"banana/Banana_overipe_Normal.png"
		},
		{
			"mimeType":"image/png",
			"name":"mk_banana_bad_lightmap",
			"uri":"banana/mk_banana_bad_lightmap.png"
		},
		{
			"mimeType":"image/png",
			"name":"Banana_overipe_BaseColor",
			"uri":"banana/Banana_overipe_BaseColor.png"
		}
	],
	"accessors":[
		{
			"bufferView":0,
			"componentType":5126,
			"count":845,
			"max":[
				0.03374718129634857,
				0.0417528860270977,
				0.0078032370656728745
			],
			"min":[
				-0.02830415405333042,
				-0.027092916890978813,
				-0.01788058876991272
			],
			"type":"VEC3"
		},
		{
			"bufferView":1,
			"componentType":5126,
			"count":845,
			"type":"VEC3"
		},
		{
			"bufferView":2,
			"componentType":5126,
			"count":845,
			"type":"VEC2"
		},
		{
			"bufferView":3,
			"componentType":5126,
			"count":845,
			"type":"VEC2"
		},
		{
			"bufferView":4,
			"componentType":5123,
			"count":4086,
			"type":"SCALAR"
		}
	],
	"bufferViews":[
		{
			"buffer":0,
			"byteLength":10140,
			"byteOffset":0,
			"target":34962
		},
		{
			"buffer":0,
			"byteLength":10140,
			"byteOffset":10140,
			"target":34962
		},
		{
			"buffer":0,
			"byteLength":6760,
			"byteOffset":20280,
			"target":34962
		},
		{
			"buffer":0,
			"byteLength":6760,
			"byteOffset":27040,
			"target":34962
		},
		{
			"buffer":0,
			"byteLength":8172,
			"byteOffset":33800,
			"target":34963
		}
	],
	"samplers":[
		{
			"magFilter":9729,
			"minFilter":9987
		}
	],
	"buffers":[
		{
			"byteLength":41972,
			"uri":"banana-bad.bin"
		}
	]
}
