{
	"asset":{
		"generator":"Khronos glTF Blender I/O v4.4.55",
		"version":"2.0"
	},
	"extensionsUsed":[
		"KHR_materials_specular"
	],
	"scene":0,
	"scenes":[
		{
			"name":"Scene",
			"nodes":[
				0
			]
		}
	],
	"nodes":[
		{
			"mesh":0,
			"name":"mk_banana_bad",
			"rotation":[
				-0.2961835563182831,
				-0.8913756608963013,
				0.31675487756729126,
				0.1318754255771637
			],
			"scale":[
				0.5527437925338745,
				0.5527437329292297,
				0.5527437925338745
			],
			"translation":[
				0.0028439871966838837,
				0.005127908196300268,
				-0.006239847280085087
			]
		}
	],
	"materials":[
		{
			"doubleSided":true,
			"emissiveFactor":[
				1,
				1,
				1
			],
			"emissiveTexture":{
				"index":0
			},
			"extensions":{
				"KHR_materials_specular":{
					"specularColorFactor":[
						2.0,
						2.0,
						2.0
					]
				}
			},
			"name":"Banana_overipe",
			"normalTexture":{
				"index":1
			},
			"pbrMetallicRoughness":{
				"baseColorTexture":{
					"index":2
				},
				"metallicFactor":0
			}
		}
	],
	"meshes":[
		{
			"name":"Aset_edible_fruits_S_tklkaixiw_LOD2.001",
			"primitives":[
				{
					"attributes":{
						"POSITION":0,
						"NORMAL":1,
						"TEXCOORD_0":2
					},
					"indices":3,
					"material":0
				}
			]
		}
	],
	"textures":[
		{
			"sampler":0,
			"source":0
		},
		{
			"sampler":0,
			"source":1
		},
		{
			"sampler":0,
			"source":0
		}
	],
	"images":[
		{
			"mimeType":"image/png",
			"name":"Banana_overipe_BaseColor",
			"uri":"banana/Banana_overipe_BaseColor.png"
		},
		{
			"mimeType":"image/png",
			"name":"Banana_overipe_Normal",
			"uri":"banana/Banana_overipe_Normal.png"
		}
	],
	"accessors":[
		{
			"bufferView":0,
			"componentType":5126,
			"count":845,
			"max":[
				0.07708258926868439,
				0.03282763063907623,
				0.01168394647538662
			],
			"min":[
				-0.07721048593521118,
				-0.032857395708560944,
				-0.01168394647538662
			],
			"type":"VEC3"
		},
		{
			"bufferView":1,
			"componentType":5126,
			"count":845,
			"type":"VEC3"
		},
		{
			"bufferView":2,
			"componentType":5126,
			"count":845,
			"type":"VEC2"
		},
		{
			"bufferView":3,
			"componentType":5123,
			"count":4086,
			"type":"SCALAR"
		}
	],
	"bufferViews":[
		{
			"buffer":0,
			"byteLength":10140,
			"byteOffset":0,
			"target":34962
		},
		{
			"buffer":0,
			"byteLength":10140,
			"byteOffset":10140,
			"target":34962
		},
		{
			"buffer":0,
			"byteLength":6760,
			"byteOffset":20280,
			"target":34962
		},
		{
			"buffer":0,
			"byteLength":8172,
			"byteOffset":27040,
			"target":34963
		}
	],
	"samplers":[
		{
			"magFilter":9729,
			"minFilter":9987
		}
	],
	"buffers":[
		{
			"byteLength":35212,
			"uri":"banana-bad.bin"
		}
	]
}
