{
	"asset":{
		"generator":"Khronos glTF Blender I/O v4.4.55",
		"version":"2.0"
	},
	"extensionsUsed":[
		"KHR_materials_specular"
	],
	"scene":0,
	"scenes":[
		{
			"name":"Scene",
			"nodes":[
				0
			]
		}
	],
	"nodes":[
		{
			"mesh":0,
			"name":"Banana medium"
		}
	],
	"materials":[
		{
			"doubleSided":true,
			"extensions":{
				"KHR_materials_specular":{
					"specularColorFactor":[
						2.0,
						2.0,
						2.0
					]
				}
			},
			"name":"MatID_1.004",
			"normalTexture":{
				"index":0
			},
			"pbrMetallicRoughness":{
				"baseColorTexture":{
					"index":1
				},
				"metallicFactor":0,
				"metallicRoughnessTexture":{
					"index":2
				}
			}
		}
	],
	"meshes":[
		{
			"name":"Aset_edible_fruits_S_tklkaixiw_LOD2",
			"primitives":[
				{
					"attributes":{
						"POSITION":0,
						"NORMAL":1,
						"TEXCOORD_0":2
					},
					"indices":3,
					"material":0
				}
			]
		}
	],
	"textures":[
		{
			"sampler":0,
			"source":0
		},
		{
			"sampler":0,
			"source":1
		},
		{
			"sampler":0,
			"source":2
		}
	],
	"images":[
		{
			"mimeType":"image/jpeg",
			"name":"Banana_tklkaixiw_Mid_2K_Normal",
			"uri":"bananaTextures/Banana_tklkaixiw_Mid_2K_Normal.jpg"
		},
		{
			"mimeType":"image/jpeg",
			"name":"Banana_tklkaixiw_Mid_2K_BaseColor",
			"uri":"bananaTextures/Banana_tklkaixiw_Mid_2K_BaseColor.jpg"
		},
		{
			"mimeType":"image/png",
			"name":"Banana_tklkaixiw_Mid_2K_Roughness",
			"uri":"bananaTextures/Banana_tklkaixiw_Mid_2K_Roughness.png"
		}
	],
	"accessors":[
		{
			"bufferView":0,
			"componentType":5126,
			"count":845,
			"max":[
				0.02174110896885395,
				0.036866605281829834,
				0.024356581270694733
			],
			"min":[
				-0.027041057124733925,
				-0.03302329406142235,
				-0.025307733565568924
			],
			"type":"VEC3"
		},
		{
			"bufferView":1,
			"componentType":5126,
			"count":845,
			"type":"VEC3"
		},
		{
			"bufferView":2,
			"componentType":5126,
			"count":845,
			"type":"VEC2"
		},
		{
			"bufferView":3,
			"componentType":5123,
			"count":4086,
			"type":"SCALAR"
		}
	],
	"bufferViews":[
		{
			"buffer":0,
			"byteLength":10140,
			"byteOffset":0,
			"target":34962
		},
		{
			"buffer":0,
			"byteLength":10140,
			"byteOffset":10140,
			"target":34962
		},
		{
			"buffer":0,
			"byteLength":6760,
			"byteOffset":20280,
			"target":34962
		},
		{
			"buffer":0,
			"byteLength":8172,
			"byteOffset":27040,
			"target":34963
		}
	],
	"samplers":[
		{
			"magFilter":9729,
			"minFilter":9987
		}
	],
	"buffers":[
		{
			"byteLength":35212,
			"uri":"banana.bin"
		}
	]
}
