{
	"asset":{
		"generator":"Khronos glTF Blender I/O v4.4.55",
		"version":"2.0"
	},
	"scene":0,
	"scenes":[
		{
			"name":"Scene",
			"nodes":[
				0
			]
		}
	],
	"nodes":[
		{
			"mesh":0,
			"name":"mk_cosmetics",
			"rotation":[
				-0.037048280239105225,
				-0.729685366153717,
				0.034821756184101105,
				0.6818901896476746
			],
			"scale":[
				1.184746503829956,
				1.184746503829956,
				1.184746503829956
			],
			"translation":[
				0,
				0.00818242970854044,
				0
			]
		}
	],
	"materials":[
		{
			"emissiveFactor":[
				0.30000001192092896,
				0.30000001192092896,
				0.30000001192092896
			],
			"emissiveTexture":{
				"index":0
			},
			"name":"mk_cosmetics",
			"pbrMetallicRoughness":{
				"baseColorTexture":{
					"index":1
				},
				"metallicFactor":0,
				"roughnessFactor":0.10000000149011612
			}
		},
		{
			"doubleSided":true,
			"name":"ColorAtlas_Cosmetics",
			"pbrMetallicRoughness":{
				"baseColorTexture":{
					"index":2,
					"texCoord":1
				},
				"metallicRoughnessTexture":{
					"index":3,
					"texCoord":2
				}
			}
		}
	],
	"meshes":[
		{
			"name":"Object_82.004",
			"primitives":[
				{
					"attributes":{
						"POSITION":0,
						"NORMAL":1,
						"TEXCOORD_0":2,
						"TEXCOORD_1":3,
						"TEXCOORD_2":4
					},
					"indices":5,
					"material":0
				},
				{
					"attributes":{
						"POSITION":6,
						"NORMAL":7,
						"TEXCOORD_0":8,
						"TEXCOORD_1":9,
						"TEXCOORD_2":10
					},
					"indices":11,
					"material":1
				}
			]
		}
	],
	"textures":[
		{
			"sampler":0,
			"source":0
		},
		{
			"sampler":0,
			"source":0
		},
		{
			"sampler":0,
			"source":1
		},
		{
			"sampler":0,
			"source":2
		}
	],
	"images":[
		{
			"mimeType":"image/png",
			"name":"Image_6",
			"uri":"cosmetics/Image_6.png"
		},
		{
			"mimeType":"image/png",
			"name":"AtlasColorTexture",
			"uri":"cosmetics/AtlasColorTexture.png"
		},
		{
			"mimeType":"image/png",
			"name":"AtlasGrayTexture",
			"uri":"cosmetics/AtlasGrayTexture.png"
		}
	],
	"accessors":[
		{
			"bufferView":0,
			"componentType":5126,
			"count":268,
			"max":[
				0.010088194161653519,
				0.006599048152565956,
				0.01013118028640747
			],
			"min":[
				-0.01008819229900837,
				-0.0304447952657938,
				-0.010131178423762321
			],
			"type":"VEC3"
		},
		{
			"bufferView":1,
			"componentType":5126,
			"count":268,
			"type":"VEC3"
		},
		{
			"bufferView":2,
			"componentType":5126,
			"count":268,
			"type":"VEC2"
		},
		{
			"bufferView":3,
			"componentType":5126,
			"count":268,
			"type":"VEC2"
		},
		{
			"bufferView":4,
			"componentType":5126,
			"count":268,
			"type":"VEC2"
		},
		{
			"bufferView":5,
			"componentType":5123,
			"count":1254,
			"type":"SCALAR"
		},
		{
			"bufferView":6,
			"componentType":5126,
			"count":560,
			"max":[
				0.006489939987659454,
				0.02803988568484783,
				0.006673973053693771
			],
			"min":[
				-0.006501392461359501,
				0.006788300350308418,
				-0.006543770432472229
			],
			"type":"VEC3"
		},
		{
			"bufferView":7,
			"componentType":5126,
			"count":560,
			"type":"VEC3"
		},
		{
			"bufferView":8,
			"componentType":5126,
			"count":560,
			"type":"VEC2"
		},
		{
			"bufferView":9,
			"componentType":5126,
			"count":560,
			"type":"VEC2"
		},
		{
			"bufferView":10,
			"componentType":5126,
			"count":560,
			"type":"VEC2"
		},
		{
			"bufferView":11,
			"componentType":5123,
			"count":2988,
			"type":"SCALAR"
		}
	],
	"bufferViews":[
		{
			"buffer":0,
			"byteLength":3216,
			"byteOffset":0,
			"target":34962
		},
		{
			"buffer":0,
			"byteLength":3216,
			"byteOffset":3216,
			"target":34962
		},
		{
			"buffer":0,
			"byteLength":2144,
			"byteOffset":6432,
			"target":34962
		},
		{
			"buffer":0,
			"byteLength":2144,
			"byteOffset":8576,
			"target":34962
		},
		{
			"buffer":0,
			"byteLength":2144,
			"byteOffset":10720,
			"target":34962
		},
		{
			"buffer":0,
			"byteLength":2508,
			"byteOffset":12864,
			"target":34963
		},
		{
			"buffer":0,
			"byteLength":6720,
			"byteOffset":15372,
			"target":34962
		},
		{
			"buffer":0,
			"byteLength":6720,
			"byteOffset":22092,
			"target":34962
		},
		{
			"buffer":0,
			"byteLength":4480,
			"byteOffset":28812,
			"target":34962
		},
		{
			"buffer":0,
			"byteLength":4480,
			"byteOffset":33292,
			"target":34962
		},
		{
			"buffer":0,
			"byteLength":4480,
			"byteOffset":37772,
			"target":34962
		},
		{
			"buffer":0,
			"byteLength":5976,
			"byteOffset":42252,
			"target":34963
		}
	],
	"samplers":[
		{
			"magFilter":9729,
			"minFilter":9987
		}
	],
	"buffers":[
		{
			"byteLength":48228,
			"uri":"cosmetics.bin"
		}
	]
}
