{
	"asset":{
		"generator":"Khronos glTF Blender I/O v4.4.55",
		"version":"2.0"
	},
	"scene":0,
	"scenes":[
		{
			"name":"Scene",
			"nodes":[
				0
			]
		}
	],
	"nodes":[
		{
			"mesh":0,
			"name":"mk_cosmetics"
		}
	],
	"materials":[
		{
			"name":"mk_cosmetics",
			"occlusionTexture":{
				"index":0,
				"texCoord":1
			},
			"pbrMetallicRoughness":{
				"baseColorTexture":{
					"index":1
				},
				"metallicFactor":0,
				"roughnessFactor":0.10000000149011612
			}
		},
		{
			"doubleSided":true,
			"name":"ColorAtlas_Cosmetics",
			"occlusionTexture":{
				"index":2,
				"texCoord":1
			},
			"pbrMetallicRoughness":{
				"baseColorTexture":{
					"index":3,
					"texCoord":2
				},
				"metallicRoughnessTexture":{
					"index":4,
					"texCoord":3
				}
			}
		}
	],
	"meshes":[
		{
			"name":"Object_82.004",
			"primitives":[
				{
					"attributes":{
						"POSITION":0,
						"NORMAL":1,
						"TEXCOORD_0":2,
						"TEXCOORD_1":3,
						"TEXCOORD_2":4,
						"TEXCOORD_3":5
					},
					"indices":6,
					"material":0
				},
				{
					"attributes":{
						"POSITION":7,
						"NORMAL":8,
						"TEXCOORD_0":9,
						"TEXCOORD_1":10,
						"TEXCOORD_2":11,
						"TEXCOORD_3":12
					},
					"indices":13,
					"material":1
				}
			]
		}
	],
	"textures":[
		{
			"sampler":0,
			"source":0
		},
		{
			"sampler":0,
			"source":1
		},
		{
			"sampler":0,
			"source":0
		},
		{
			"sampler":0,
			"source":2
		},
		{
			"sampler":0,
			"source":3
		}
	],
	"images":[
		{
			"mimeType":"image/png",
			"name":"mk_cosmetics_lightmap",
			"uri":"cosmetics/mk_cosmetics_lightmap.png"
		},
		{
			"mimeType":"image/png",
			"name":"Image_6",
			"uri":"cosmetics/Image_6.png"
		},
		{
			"mimeType":"image/png",
			"name":"AtlasColorTexture",
			"uri":"cosmetics/AtlasColorTexture.png"
		},
		{
			"mimeType":"image/png",
			"name":"AtlasGrayTexture",
			"uri":"cosmetics/AtlasGrayTexture.png"
		}
	],
	"accessors":[
		{
			"bufferView":0,
			"componentType":5126,
			"count":268,
			"max":[
				0.012063504196703434,
				0.016690358519554138,
				0.014829196967184544
			],
			"min":[
				-0.012237491086125374,
				-0.028698164969682693,
				-0.01214872021228075
			],
			"type":"VEC3"
		},
		{
			"bufferView":1,
			"componentType":5126,
			"count":268,
			"type":"VEC3"
		},
		{
			"bufferView":2,
			"componentType":5126,
			"count":268,
			"type":"VEC2"
		},
		{
			"bufferView":3,
			"componentType":5126,
			"count":268,
			"type":"VEC2"
		},
		{
			"bufferView":4,
			"componentType":5126,
			"count":268,
			"type":"VEC2"
		},
		{
			"bufferView":5,
			"componentType":5126,
			"count":268,
			"type":"VEC2"
		},
		{
			"bufferView":6,
			"componentType":5123,
			"count":1254,
			"type":"SCALAR"
		},
		{
			"bufferView":7,
			"componentType":5126,
			"count":560,
			"max":[
				0.007845496758818626,
				0.041307270526885986,
				0.0068572284653782845
			],
			"min":[
				-0.007889964617788792,
				0.015313608571887016,
				-0.009358043782413006
			],
			"type":"VEC3"
		},
		{
			"bufferView":8,
			"componentType":5126,
			"count":560,
			"type":"VEC3"
		},
		{
			"bufferView":9,
			"componentType":5126,
			"count":560,
			"type":"VEC2"
		},
		{
			"bufferView":10,
			"componentType":5126,
			"count":560,
			"type":"VEC2"
		},
		{
			"bufferView":11,
			"componentType":5126,
			"count":560,
			"type":"VEC2"
		},
		{
			"bufferView":12,
			"componentType":5126,
			"count":560,
			"type":"VEC2"
		},
		{
			"bufferView":13,
			"componentType":5123,
			"count":2988,
			"type":"SCALAR"
		}
	],
	"bufferViews":[
		{
			"buffer":0,
			"byteLength":3216,
			"byteOffset":0,
			"target":34962
		},
		{
			"buffer":0,
			"byteLength":3216,
			"byteOffset":3216,
			"target":34962
		},
		{
			"buffer":0,
			"byteLength":2144,
			"byteOffset":6432,
			"target":34962
		},
		{
			"buffer":0,
			"byteLength":2144,
			"byteOffset":8576,
			"target":34962
		},
		{
			"buffer":0,
			"byteLength":2144,
			"byteOffset":10720,
			"target":34962
		},
		{
			"buffer":0,
			"byteLength":2144,
			"byteOffset":12864,
			"target":34962
		},
		{
			"buffer":0,
			"byteLength":2508,
			"byteOffset":15008,
			"target":34963
		},
		{
			"buffer":0,
			"byteLength":6720,
			"byteOffset":17516,
			"target":34962
		},
		{
			"buffer":0,
			"byteLength":6720,
			"byteOffset":24236,
			"target":34962
		},
		{
			"buffer":0,
			"byteLength":4480,
			"byteOffset":30956,
			"target":34962
		},
		{
			"buffer":0,
			"byteLength":4480,
			"byteOffset":35436,
			"target":34962
		},
		{
			"buffer":0,
			"byteLength":4480,
			"byteOffset":39916,
			"target":34962
		},
		{
			"buffer":0,
			"byteLength":4480,
			"byteOffset":44396,
			"target":34962
		},
		{
			"buffer":0,
			"byteLength":5976,
			"byteOffset":48876,
			"target":34963
		}
	],
	"samplers":[
		{
			"magFilter":9729,
			"minFilter":9987
		}
	],
	"buffers":[
		{
			"byteLength":54852,
			"uri":"cosmetics.bin"
		}
	]
}
