{
	"asset":{
		"generator":"Khronos glTF Blender I/O v4.4.55",
		"version":"2.0"
	},
	"scene":0,
	"scenes":[
		{
			"name":"Scene",
			"nodes":[
				0
			]
		}
	],
	"nodes":[
		{
			"mesh":0,
			"name":"mk_fish_bad",
			"rotation":[
				0.11839500814676285,
				0.9927956461906433,
				0.012764004059135914,
				0.013284686952829361
			],
			"scale":[
				0.13731920719146729,
				0.13731920719146729,
				0.13731920719146729
			],
			"translation":[
				-0.004816684406250715,
				0.00412035034969449,
				-0.0023976825177669525
			]
		}
	],
	"materials":[
		{
			"doubleSided":true,
			"emissiveFactor":[
				1,
				1,
				1
			],
			"emissiveTexture":{
				"index":0
			},
			"name":"mk_Fish_rotten",
			"normalTexture":{
				"index":1
			},
			"pbrMetallicRoughness":{
				"baseColorTexture":{
					"index":2
				},
				"metallicFactor":0,
				"metallicRoughnessTexture":{
					"index":3
				}
			}
		}
	],
	"meshes":[
		{
			"name":"mk_Fish.001",
			"primitives":[
				{
					"attributes":{
						"POSITION":0,
						"NORMAL":1,
						"TEXCOORD_0":2,
						"TEXCOORD_1":3
					},
					"indices":4,
					"material":0
				}
			]
		}
	],
	"textures":[
		{
			"sampler":0,
			"source":0
		},
		{
			"sampler":0,
			"source":1
		},
		{
			"sampler":0,
			"source":0
		},
		{
			"sampler":0,
			"source":2
		}
	],
	"images":[
		{
			"mimeType":"image/png",
			"name":"mk_Fish_Rotten_BaseColor",
			"uri":"fish/mk_Fish_Rotten_BaseColor.png"
		},
		{
			"mimeType":"image/png",
			"name":"mk_Fish_Rotten_Normal",
			"uri":"fish/mk_Fish_Rotten_Normal.png"
		},
		{
			"mimeType":"image/png",
			"name":"mk_Fish_Rotten_Roughness",
			"uri":"fish/mk_Fish_Rotten_Roughness.png"
		}
	],
	"accessors":[
		{
			"bufferView":0,
			"componentType":5126,
			"count":1333,
			"max":[
				0.38631966710090637,
				0.16880366206169128,
				0.11108316481113434
			],
			"min":[
				-0.6734029650688171,
				-0.2472255975008011,
				-0.12134958803653717
			],
			"type":"VEC3"
		},
		{
			"bufferView":1,
			"componentType":5126,
			"count":1333,
			"type":"VEC3"
		},
		{
			"bufferView":2,
			"componentType":5126,
			"count":1333,
			"type":"VEC2"
		},
		{
			"bufferView":3,
			"componentType":5126,
			"count":1333,
			"type":"VEC2"
		},
		{
			"bufferView":4,
			"componentType":5123,
			"count":6861,
			"type":"SCALAR"
		}
	],
	"bufferViews":[
		{
			"buffer":0,
			"byteLength":15996,
			"byteOffset":0,
			"target":34962
		},
		{
			"buffer":0,
			"byteLength":15996,
			"byteOffset":15996,
			"target":34962
		},
		{
			"buffer":0,
			"byteLength":10664,
			"byteOffset":31992,
			"target":34962
		},
		{
			"buffer":0,
			"byteLength":10664,
			"byteOffset":42656,
			"target":34962
		},
		{
			"buffer":0,
			"byteLength":13722,
			"byteOffset":53320,
			"target":34963
		}
	],
	"samplers":[
		{
			"magFilter":9729,
			"minFilter":9987
		}
	],
	"buffers":[
		{
			"byteLength":67044,
			"uri":"fish-bad.bin"
		}
	]
}
