{
	"asset":{
		"generator":"Khronos glTF Blender I/O v4.4.55",
		"version":"2.0"
	},
	"scene":0,
	"scenes":[
		{
			"name":"Scene",
			"nodes":[
				0
			]
		}
	],
	"nodes":[
		{
			"mesh":0,
			"name":"mk_fish_bad"
		}
	],
	"materials":[
		{
			"doubleSided":true,
			"emissiveFactor":[
				1,
				1,
				1
			],
			"emissiveTexture":{
				"index":0
			},
			"name":"mk_Fish_rotten",
			"normalTexture":{
				"index":1
			},
			"occlusionTexture":{
				"index":2
			},
			"pbrMetallicRoughness":{
				"baseColorTexture":{
					"index":3
				},
				"metallicFactor":0,
				"metallicRoughnessTexture":{
					"index":4
				}
			}
		}
	],
	"meshes":[
		{
			"name":"mk_Fish.001",
			"primitives":[
				{
					"attributes":{
						"POSITION":0,
						"NORMAL":1,
						"TEXCOORD_0":2,
						"TEXCOORD_1":3
					},
					"indices":4,
					"material":0
				}
			]
		}
	],
	"textures":[
		{
			"sampler":0,
			"source":0
		},
		{
			"sampler":0,
			"source":1
		},
		{
			"sampler":0,
			"source":2
		},
		{
			"sampler":0,
			"source":0
		},
		{
			"sampler":0,
			"source":3
		}
	],
	"images":[
		{
			"mimeType":"image/png",
			"name":"mk_Fish_Rotten_BaseColor",
			"uri":"inspectable/mk_Fish_Rotten_BaseColor.png"
		},
		{
			"mimeType":"image/png",
			"name":"mk_Fish_Rotten_Normal",
			"uri":"inspectable/mk_Fish_Rotten_Normal.png"
		},
		{
			"mimeType":"image/png",
			"name":"mk_cosmetics_lightmap",
			"uri":"inspectable/mk_cosmetics_lightmap.png"
		},
		{
			"mimeType":"image/png",
			"name":"mk_Fish_Rotten_Roughness",
			"uri":"inspectable/mk_Fish_Rotten_Roughness.png"
		}
	],
	"accessors":[
		{
			"bufferView":0,
			"componentType":5126,
			"count":1333,
			"max":[
				0.08681830018758774,
				0.028116967529058456,
				0.01504288986325264
			],
			"min":[
				-0.05575694888830185,
				-0.03302597627043724,
				-0.018681973218917847
			],
			"type":"VEC3"
		},
		{
			"bufferView":1,
			"componentType":5126,
			"count":1333,
			"type":"VEC3"
		},
		{
			"bufferView":2,
			"componentType":5126,
			"count":1333,
			"type":"VEC2"
		},
		{
			"bufferView":3,
			"componentType":5126,
			"count":1333,
			"type":"VEC2"
		},
		{
			"bufferView":4,
			"componentType":5123,
			"count":6861,
			"type":"SCALAR"
		}
	],
	"bufferViews":[
		{
			"buffer":0,
			"byteLength":15996,
			"byteOffset":0,
			"target":34962
		},
		{
			"buffer":0,
			"byteLength":15996,
			"byteOffset":15996,
			"target":34962
		},
		{
			"buffer":0,
			"byteLength":10664,
			"byteOffset":31992,
			"target":34962
		},
		{
			"buffer":0,
			"byteLength":10664,
			"byteOffset":42656,
			"target":34962
		},
		{
			"buffer":0,
			"byteLength":13722,
			"byteOffset":53320,
			"target":34963
		}
	],
	"samplers":[
		{
			"magFilter":9729,
			"minFilter":9987
		}
	],
	"buffers":[
		{
			"byteLength":67044,
			"uri":"fish-bad.bin"
		}
	]
}
