{
	"asset":{
		"generator":"Khronos glTF Blender I/O v4.4.55",
		"version":"2.0"
	},
	"scene":0,
	"scenes":[
		{
			"name":"Scene",
			"nodes":[
				0
			]
		}
	],
	"nodes":[
		{
			"mesh":0,
			"name":"mk_medicaldevice"
		}
	],
	"materials":[
		{
			"doubleSided":true,
			"name":"Thermometer.001",
			"normalTexture":{
				"index":0
			},
			"occlusionTexture":{
				"index":1
			},
			"pbrMetallicRoughness":{
				"baseColorTexture":{
					"index":2
				},
				"metallicRoughnessTexture":{
					"index":1
				}
			}
		}
	],
	"meshes":[
		{
			"name":"Mesh.003",
			"primitives":[
				{
					"attributes":{
						"POSITION":0,
						"NORMAL":1,
						"TEXCOORD_0":2
					},
					"indices":3,
					"material":0
				}
			]
		}
	],
	"textures":[
		{
			"sampler":0,
			"source":0
		},
		{
			"sampler":0,
			"source":1
		},
		{
			"sampler":0,
			"source":2
		}
	],
	"images":[
		{
			"mimeType":"image/png",
			"name":"lambert1_Normal_OpenGL",
			"uri":"medicaldevice/lambert1_Normal_OpenGL.png"
		},
		{
			"mimeType":"image/png",
			"name":"mk_cosmetics_lightmap-lambert1_Metallic-lambert1_Roughness",
			"uri":"medicaldevice/mk_cosmetics_lightmap-lambert1_Metallic-lambert1_Roughness.png"
		},
		{
			"mimeType":"image/png",
			"name":"lambert1_Base_Color",
			"uri":"medicaldevice/lambert1_Base_Color.png"
		}
	],
	"accessors":[
		{
			"bufferView":0,
			"componentType":5126,
			"count":275,
			"max":[
				0.030062038451433182,
				0.03773774206638336,
				0.017841709777712822
			],
			"min":[
				-0.027832966297864914,
				-0.037153393030166626,
				-0.016696128994226456
			],
			"type":"VEC3"
		},
		{
			"bufferView":1,
			"componentType":5126,
			"count":275,
			"type":"VEC3"
		},
		{
			"bufferView":2,
			"componentType":5126,
			"count":275,
			"type":"VEC2"
		},
		{
			"bufferView":3,
			"componentType":5123,
			"count":1050,
			"type":"SCALAR"
		}
	],
	"bufferViews":[
		{
			"buffer":0,
			"byteLength":3300,
			"byteOffset":0,
			"target":34962
		},
		{
			"buffer":0,
			"byteLength":3300,
			"byteOffset":3300,
			"target":34962
		},
		{
			"buffer":0,
			"byteLength":2200,
			"byteOffset":6600,
			"target":34962
		},
		{
			"buffer":0,
			"byteLength":2100,
			"byteOffset":8800,
			"target":34963
		}
	],
	"samplers":[
		{
			"magFilter":9729,
			"minFilter":9987
		}
	],
	"buffers":[
		{
			"byteLength":10900,
			"uri":"medicaldevice.bin"
		}
	]
}
