{
	"asset":{
		"generator":"Khronos glTF Blender I/O v4.4.55",
		"version":"2.0"
	},
	"extensionsUsed":[
		"KHR_materials_specular",
		"KHR_materials_ior"
	],
	"scene":0,
	"scenes":[
		{
			"name":"Scene",
			"nodes":[
				0
			]
		}
	],
	"nodes":[
		{
			"mesh":0,
			"name":"mk_packedfood1",
			"rotation":[
				-0.1073039099574089,
				0.7958675622940063,
				-0.09445805847644806,
				0.5883523225784302
			],
			"scale":[
				0.47606247663497925,
				0.47606247663497925,
				0.476062536239624
			]
		}
	],
	"materials":[
		{
			"doubleSided":true,
			"emissiveFactor":[
				0.30000001192092896,
				0.30000001192092896,
				0.30000001192092896
			],
			"emissiveTexture":{
				"index":0
			},
			"extensions":{
				"KHR_materials_specular":{
					"specularColorFactor":[
						0.017323477193713188,
						0.017323477193713188,
						0.017323477193713188
					]
				},
				"KHR_materials_ior":{
					"ior":1000
				}
			},
			"name":"material_0",
			"normalTexture":{
				"index":1
			},
			"pbrMetallicRoughness":{
				"baseColorTexture":{
					"index":2
				},
				"metallicFactor":0,
				"metallicRoughnessTexture":{
					"index":3
				}
			}
		}
	],
	"meshes":[
		{
			"name":"Object_0.002",
			"primitives":[
				{
					"attributes":{
						"POSITION":0,
						"NORMAL":1,
						"TEXCOORD_0":2
					},
					"indices":3,
					"material":0
				}
			]
		}
	],
	"textures":[
		{
			"sampler":0,
			"source":0
		},
		{
			"sampler":0,
			"source":1
		},
		{
			"sampler":0,
			"source":0
		},
		{
			"sampler":0,
			"source":2
		}
	],
	"images":[
		{
			"mimeType":"image/jpeg",
			"name":"Image_0",
			"uri":"packedfood1/Image_0.jpg"
		},
		{
			"mimeType":"image/jpeg",
			"name":"Image_2",
			"uri":"packedfood1/Image_2.jpg"
		},
		{
			"mimeType":"image/png",
			"name":"Image_1",
			"uri":"packedfood1/Image_1.png"
		}
	],
	"accessors":[
		{
			"bufferView":0,
			"componentType":5126,
			"count":11513,
			"max":[
				0.06221569702029228,
				0.034933120012283325,
				0.08033047616481781
			],
			"min":[
				-0.06221569702029228,
				-0.034933120012283325,
				-0.08033047616481781
			],
			"type":"VEC3"
		},
		{
			"bufferView":1,
			"componentType":5126,
			"count":11513,
			"type":"VEC3"
		},
		{
			"bufferView":2,
			"componentType":5126,
			"count":11513,
			"type":"VEC2"
		},
		{
			"bufferView":3,
			"componentType":5123,
			"count":35409,
			"type":"SCALAR"
		}
	],
	"bufferViews":[
		{
			"buffer":0,
			"byteLength":138156,
			"byteOffset":0,
			"target":34962
		},
		{
			"buffer":0,
			"byteLength":138156,
			"byteOffset":138156,
			"target":34962
		},
		{
			"buffer":0,
			"byteLength":92104,
			"byteOffset":276312,
			"target":34962
		},
		{
			"buffer":0,
			"byteLength":70818,
			"byteOffset":368416,
			"target":34963
		}
	],
	"samplers":[
		{
			"magFilter":9729,
			"minFilter":9987
		}
	],
	"buffers":[
		{
			"byteLength":439236,
			"uri":"packedfood1.bin"
		}
	]
}
