{
	"asset":{
		"generator":"Khronos glTF Blender I/O v4.4.55",
		"version":"2.0"
	},
	"scene":0,
	"scenes":[
		{
			"name":"Scene",
			"nodes":[
				0
			]
		}
	],
	"nodes":[
		{
			"mesh":0,
			"name":"mk_packedfood2_bad"
		}
	],
	"materials":[
		{
			"doubleSided":true,
			"name":"Crackers box damaged",
			"normalTexture":{
				"index":0
			},
			"occlusionTexture":{
				"index":1
			},
			"pbrMetallicRoughness":{
				"baseColorTexture":{
					"index":2
				},
				"metallicFactor":0,
				"metallicRoughnessTexture":{
					"index":3
				}
			}
		}
	],
	"meshes":[
		{
			"name":"Cube.033",
			"primitives":[
				{
					"attributes":{
						"POSITION":0,
						"NORMAL":1,
						"TEXCOORD_0":2
					},
					"indices":3,
					"material":0
				}
			]
		}
	],
	"textures":[
		{
			"sampler":0,
			"source":0
		},
		{
			"sampler":0,
			"source":1
		},
		{
			"sampler":0,
			"source":2
		},
		{
			"sampler":0,
			"source":3
		}
	],
	"images":[
		{
			"mimeType":"image/png",
			"name":"Crackers box_Normal",
			"uri":"inspectable/Crackers%20box_Normal.png"
		},
		{
			"mimeType":"image/png",
			"name":"mk_cosmetics_lightmap",
			"uri":"inspectable/mk_cosmetics_lightmap.png"
		},
		{
			"mimeType":"image/png",
			"name":"Crackers box_BaseColor",
			"uri":"inspectable/Crackers%20box_BaseColor.png"
		},
		{
			"mimeType":"image/png",
			"name":"Crackers box_Roughness",
			"uri":"inspectable/Crackers%20box_Roughness.png"
		}
	],
	"accessors":[
		{
			"bufferView":0,
			"componentType":5126,
			"count":129,
			"max":[
				0.03203222155570984,
				0.04039232060313225,
				0.026489324867725372
			],
			"min":[
				-0.031233223155140877,
				-0.04189224913716316,
				-0.029767140746116638
			],
			"type":"VEC3"
		},
		{
			"bufferView":1,
			"componentType":5126,
			"count":129,
			"type":"VEC3"
		},
		{
			"bufferView":2,
			"componentType":5126,
			"count":129,
			"type":"VEC2"
		},
		{
			"bufferView":3,
			"componentType":5123,
			"count":354,
			"type":"SCALAR"
		}
	],
	"bufferViews":[
		{
			"buffer":0,
			"byteLength":1548,
			"byteOffset":0,
			"target":34962
		},
		{
			"buffer":0,
			"byteLength":1548,
			"byteOffset":1548,
			"target":34962
		},
		{
			"buffer":0,
			"byteLength":1032,
			"byteOffset":3096,
			"target":34962
		},
		{
			"buffer":0,
			"byteLength":708,
			"byteOffset":4128,
			"target":34963
		}
	],
	"samplers":[
		{
			"magFilter":9729,
			"minFilter":9987
		}
	],
	"buffers":[
		{
			"byteLength":4836,
			"uri":"packedfood2-bad.bin"
		}
	]
}
