{
	"asset":{
		"generator":"Khronos glTF Blender I/O v4.4.55",
		"version":"2.0"
	},
	"scene":0,
	"scenes":[
		{
			"name":"Scene",
			"nodes":[
				0
			]
		}
	],
	"nodes":[
		{
			"mesh":0,
			"name":"mk_packedfood2_bad",
			"rotation":[
				-0.09628261625766754,
				-0.21852493286132812,
				0.012009118683636189,
				0.9709955453872681
			],
			"scale":[
				0.24081116914749146,
				0.24081113934516907,
				0.24081112444400787
			],
			"translation":[
				-3.2604439184069633e-05,
				-0.03682418540120125,
				0.003997445572167635
			]
		}
	],
	"materials":[
		{
			"doubleSided":true,
			"name":"Crackers box damaged",
			"normalTexture":{
				"index":0
			},
			"pbrMetallicRoughness":{
				"baseColorTexture":{
					"index":1
				},
				"metallicFactor":0,
				"metallicRoughnessTexture":{
					"index":2
				}
			}
		}
	],
	"meshes":[
		{
			"name":"Cube.033",
			"primitives":[
				{
					"attributes":{
						"POSITION":0,
						"NORMAL":1,
						"TEXCOORD_0":2
					},
					"indices":3,
					"material":0
				}
			]
		}
	],
	"textures":[
		{
			"sampler":0,
			"source":0
		},
		{
			"sampler":0,
			"source":1
		},
		{
			"sampler":0,
			"source":2
		}
	],
	"images":[
		{
			"mimeType":"image/png",
			"name":"Crackers box_Normal",
			"uri":"packedfood2/Crackers%20box_Normal.png"
		},
		{
			"mimeType":"image/png",
			"name":"Crackers box_BaseColor",
			"uri":"packedfood2/Crackers%20box_BaseColor.png"
		},
		{
			"mimeType":"image/png",
			"name":"Crackers box_Roughness",
			"uri":"packedfood2/Crackers%20box_Roughness.png"
		}
	],
	"accessors":[
		{
			"bufferView":0,
			"componentType":5126,
			"count":126,
			"max":[
				0.1249999925494194,
				0.3168974220752716,
				0.05260204151272774
			],
			"min":[
				-0.13109490275382996,
				-1.4901161193847656e-08,
				-0.03385557979345322
			],
			"type":"VEC3"
		},
		{
			"bufferView":1,
			"componentType":5126,
			"count":126,
			"type":"VEC3"
		},
		{
			"bufferView":2,
			"componentType":5126,
			"count":126,
			"type":"VEC2"
		},
		{
			"bufferView":3,
			"componentType":5123,
			"count":354,
			"type":"SCALAR"
		}
	],
	"bufferViews":[
		{
			"buffer":0,
			"byteLength":1512,
			"byteOffset":0,
			"target":34962
		},
		{
			"buffer":0,
			"byteLength":1512,
			"byteOffset":1512,
			"target":34962
		},
		{
			"buffer":0,
			"byteLength":1008,
			"byteOffset":3024,
			"target":34962
		},
		{
			"buffer":0,
			"byteLength":708,
			"byteOffset":4032,
			"target":34963
		}
	],
	"samplers":[
		{
			"magFilter":9729,
			"minFilter":9987
		}
	],
	"buffers":[
		{
			"byteLength":4740,
			"uri":"packedfood2-bad.bin"
		}
	]
}
