{
	"asset":{
		"generator":"Khronos glTF Blender I/O v4.4.55",
		"version":"2.0"
	},
	"scene":0,
	"scenes":[
		{
			"name":"Scene",
			"nodes":[
				0
			]
		}
	],
	"nodes":[
		{
			"mesh":0,
			"name":"mk_petFood",
			"rotation":[
				-0.01808224990963936,
				0.980095386505127,
				-0.10632959753274918,
				0.16667352616786957
			]
		}
	],
	"materials":[
		{
			"doubleSided":true,
			"emissiveFactor":[
				0.4000000059604645,
				0.4000000059604645,
				0.4000000059604645
			],
			"emissiveTexture":{
				"index":0
			},
			"name":"Pack",
			"pbrMetallicRoughness":{
				"baseColorTexture":{
					"index":1
				},
				"metallicFactor":0.30000001192092896,
				"metallicRoughnessTexture":{
					"index":2
				},
				"roughnessFactor":0.5
			}
		},
		{
			"doubleSided":true,
			"name":"ColorAtlas_Circle.004",
			"pbrMetallicRoughness":{
				"baseColorTexture":{
					"index":3,
					"texCoord":3
				},
				"metallicRoughnessTexture":{
					"index":4,
					"texCoord":4
				}
			}
		},
		{
			"doubleSided":true,
			"emissiveFactor":[
				1,
				1,
				1
			],
			"emissiveTexture":{
				"index":5
			},
			"name":"gingerbread_cookie.003",
			"normalTexture":{
				"index":6
			},
			"pbrMetallicRoughness":{
				"baseColorTexture":{
					"index":7
				},
				"metallicRoughnessTexture":{
					"index":8
				}
			}
		}
	],
	"meshes":[
		{
			"name":"Object_0",
			"primitives":[
				{
					"attributes":{
						"POSITION":0,
						"NORMAL":1,
						"TEXCOORD_0":2,
						"TEXCOORD_1":3,
						"TEXCOORD_2":4,
						"TEXCOORD_3":5,
						"TEXCOORD_4":6
					},
					"indices":7,
					"material":0
				},
				{
					"attributes":{
						"POSITION":8,
						"NORMAL":9,
						"TEXCOORD_0":10,
						"TEXCOORD_1":11,
						"TEXCOORD_2":12,
						"TEXCOORD_3":13,
						"TEXCOORD_4":14
					},
					"indices":15,
					"material":1
				},
				{
					"attributes":{
						"POSITION":16,
						"NORMAL":17,
						"TEXCOORD_0":18,
						"TEXCOORD_1":19,
						"TEXCOORD_2":20,
						"TEXCOORD_3":21,
						"TEXCOORD_4":22
					},
					"indices":23,
					"material":2
				}
			]
		}
	],
	"textures":[
		{
			"sampler":0,
			"source":0
		},
		{
			"sampler":0,
			"source":0
		},
		{
			"sampler":0,
			"source":1
		},
		{
			"sampler":0,
			"source":2
		},
		{
			"sampler":0,
			"source":3
		},
		{
			"sampler":0,
			"source":4
		},
		{
			"sampler":0,
			"source":5
		},
		{
			"sampler":0,
			"source":6
		},
		{
			"sampler":0,
			"source":7
		}
	],
	"images":[
		{
			"mimeType":"image/jpeg",
			"name":"Image_1",
			"uri":"petfoodTextures/Image_1.jpg"
		},
		{
			"mimeType":"image/png",
			"name":"Image_1",
			"uri":"petfoodTextures/Image_1.png"
		},
		{
			"mimeType":"image/png",
			"name":"AtlasColorTexture",
			"uri":"petfoodTextures/AtlasColorTexture.png"
		},
		{
			"mimeType":"image/png",
			"name":"AtlasGrayTexture",
			"uri":"petfoodTextures/AtlasGrayTexture.png"
		},
		{
			"mimeType":"image/png",
			"name":"gingerbread_cookie_metallic",
			"uri":"petfoodTextures/gingerbread_cookie_metallic.png"
		},
		{
			"mimeType":"image/png",
			"name":"gingerbread_cookie_Gingerbread_Cookie_normal",
			"uri":"petfoodTextures/gingerbread_cookie_Gingerbread_Cookie_normal.png"
		},
		{
			"mimeType":"image/png",
			"name":"gingerbread_cookie_baseColor",
			"uri":"petfoodTextures/gingerbread_cookie_baseColor.png"
		},
		{
			"mimeType":"image/png",
			"name":"gingerbread_cookie_metallic-gingerbread_cookie_roughness",
			"uri":"petfoodTextures/gingerbread_cookie_metallic-gingerbread_cookie_roughness.png"
		}
	],
	"accessors":[
		{
			"bufferView":0,
			"componentType":5126,
			"count":7280,
			"max":[
				0.02461438626050949,
				0.04605797305703163,
				0.0007458645850419998
			],
			"min":[
				-0.023857472464442253,
				-0.03542540594935417,
				-0.024958640336990356
			],
			"type":"VEC3"
		},
		{
			"bufferView":1,
			"componentType":5126,
			"count":7280,
			"type":"VEC3"
		},
		{
			"bufferView":2,
			"componentType":5126,
			"count":7280,
			"type":"VEC2"
		},
		{
			"bufferView":3,
			"componentType":5126,
			"count":7280,
			"type":"VEC2"
		},
		{
			"bufferView":4,
			"componentType":5126,
			"count":7280,
			"type":"VEC2"
		},
		{
			"bufferView":5,
			"componentType":5126,
			"count":7280,
			"type":"VEC2"
		},
		{
			"bufferView":6,
			"componentType":5126,
			"count":7280,
			"type":"VEC2"
		},
		{
			"bufferView":7,
			"componentType":5123,
			"count":29316,
			"type":"SCALAR"
		},
		{
			"bufferView":8,
			"componentType":5126,
			"count":1836,
			"max":[
				0.0010933629237115383,
				-0.02323725074529648,
				0.020798560231924057
			],
			"min":[
				-0.01893511228263378,
				-0.03550148755311966,
				0.0007700836285948753
			],
			"type":"VEC3"
		},
		{
			"bufferView":9,
			"componentType":5126,
			"count":1836,
			"type":"VEC3"
		},
		{
			"bufferView":10,
			"componentType":5126,
			"count":1836,
			"type":"VEC2"
		},
		{
			"bufferView":11,
			"componentType":5126,
			"count":1836,
			"type":"VEC2"
		},
		{
			"bufferView":12,
			"componentType":5126,
			"count":1836,
			"type":"VEC2"
		},
		{
			"bufferView":13,
			"componentType":5126,
			"count":1836,
			"type":"VEC2"
		},
		{
			"bufferView":14,
			"componentType":5126,
			"count":1836,
			"type":"VEC2"
		},
		{
			"bufferView":15,
			"componentType":5123,
			"count":4404,
			"type":"SCALAR"
		},
		{
			"bufferView":16,
			"componentType":5126,
			"count":30536,
			"max":[
				0.0001301695592701435,
				-0.020663218572735786,
				0.020090613514184952
			],
			"min":[
				-0.018464315682649612,
				-0.03001638688147068,
				0.0015038186684250832
			],
			"type":"VEC3"
		},
		{
			"bufferView":17,
			"componentType":5126,
			"count":30536,
			"type":"VEC3"
		},
		{
			"bufferView":18,
			"componentType":5126,
			"count":30536,
			"type":"VEC2"
		},
		{
			"bufferView":19,
			"componentType":5126,
			"count":30536,
			"type":"VEC2"
		},
		{
			"bufferView":20,
			"componentType":5126,
			"count":30536,
			"type":"VEC2"
		},
		{
			"bufferView":21,
			"componentType":5126,
			"count":30536,
			"type":"VEC2"
		},
		{
			"bufferView":22,
			"componentType":5126,
			"count":30536,
			"type":"VEC2"
		},
		{
			"bufferView":23,
			"componentType":5123,
			"count":74844,
			"type":"SCALAR"
		}
	],
	"bufferViews":[
		{
			"buffer":0,
			"byteLength":87360,
			"byteOffset":0,
			"target":34962
		},
		{
			"buffer":0,
			"byteLength":87360,
			"byteOffset":87360,
			"target":34962
		},
		{
			"buffer":0,
			"byteLength":58240,
			"byteOffset":174720,
			"target":34962
		},
		{
			"buffer":0,
			"byteLength":58240,
			"byteOffset":232960,
			"target":34962
		},
		{
			"buffer":0,
			"byteLength":58240,
			"byteOffset":291200,
			"target":34962
		},
		{
			"buffer":0,
			"byteLength":58240,
			"byteOffset":349440,
			"target":34962
		},
		{
			"buffer":0,
			"byteLength":58240,
			"byteOffset":407680,
			"target":34962
		},
		{
			"buffer":0,
			"byteLength":58632,
			"byteOffset":465920,
			"target":34963
		},
		{
			"buffer":0,
			"byteLength":22032,
			"byteOffset":524552,
			"target":34962
		},
		{
			"buffer":0,
			"byteLength":22032,
			"byteOffset":546584,
			"target":34962
		},
		{
			"buffer":0,
			"byteLength":14688,
			"byteOffset":568616,
			"target":34962
		},
		{
			"buffer":0,
			"byteLength":14688,
			"byteOffset":583304,
			"target":34962
		},
		{
			"buffer":0,
			"byteLength":14688,
			"byteOffset":597992,
			"target":34962
		},
		{
			"buffer":0,
			"byteLength":14688,
			"byteOffset":612680,
			"target":34962
		},
		{
			"buffer":0,
			"byteLength":14688,
			"byteOffset":627368,
			"target":34962
		},
		{
			"buffer":0,
			"byteLength":8808,
			"byteOffset":642056,
			"target":34963
		},
		{
			"buffer":0,
			"byteLength":366432,
			"byteOffset":650864,
			"target":34962
		},
		{
			"buffer":0,
			"byteLength":366432,
			"byteOffset":1017296,
			"target":34962
		},
		{
			"buffer":0,
			"byteLength":244288,
			"byteOffset":1383728,
			"target":34962
		},
		{
			"buffer":0,
			"byteLength":244288,
			"byteOffset":1628016,
			"target":34962
		},
		{
			"buffer":0,
			"byteLength":244288,
			"byteOffset":1872304,
			"target":34962
		},
		{
			"buffer":0,
			"byteLength":244288,
			"byteOffset":2116592,
			"target":34962
		},
		{
			"buffer":0,
			"byteLength":244288,
			"byteOffset":2360880,
			"target":34962
		},
		{
			"buffer":0,
			"byteLength":149688,
			"byteOffset":2605168,
			"target":34963
		}
	],
	"samplers":[
		{
			"magFilter":9729,
			"minFilter":9987
		}
	],
	"buffers":[
		{
			"byteLength":2754856,
			"uri":"petfood.bin"
		}
	]
}
