{
	"asset":{
		"generator":"Khronos glTF Blender I/O v4.4.55",
		"version":"2.0"
	},
	"scene":0,
	"scenes":[
		{
			"name":"Scene",
			"nodes":[
				0
			]
		}
	],
	"nodes":[
		{
			"mesh":0,
			"name":"mk_petfood"
		}
	],
	"materials":[
		{
			"doubleSided":true,
			"name":"Pack",
			"occlusionTexture":{
				"index":0
			},
			"pbrMetallicRoughness":{
				"baseColorTexture":{
					"index":1
				},
				"metallicFactor":0.30000001192092896,
				"metallicRoughnessTexture":{
					"index":2
				},
				"roughnessFactor":0.5
			}
		},
		{
			"doubleSided":true,
			"name":"ColorAtlas_Circle.004",
			"pbrMetallicRoughness":{
				"baseColorTexture":{
					"index":3,
					"texCoord":3
				},
				"metallicRoughnessTexture":{
					"index":4,
					"texCoord":4
				}
			}
		},
		{
			"doubleSided":true,
			"emissiveFactor":[
				1,
				1,
				1
			],
			"emissiveTexture":{
				"index":5
			},
			"name":"gingerbread_cookie.003",
			"normalTexture":{
				"index":6
			},
			"pbrMetallicRoughness":{
				"baseColorTexture":{
					"index":7
				},
				"metallicRoughnessTexture":{
					"index":8
				}
			}
		}
	],
	"meshes":[
		{
			"name":"Object_0",
			"primitives":[
				{
					"attributes":{
						"POSITION":0,
						"NORMAL":1,
						"TEXCOORD_0":2,
						"TEXCOORD_1":3,
						"TEXCOORD_2":4,
						"TEXCOORD_3":5,
						"TEXCOORD_4":6
					},
					"indices":7,
					"material":0
				},
				{
					"attributes":{
						"POSITION":8,
						"NORMAL":9,
						"TEXCOORD_0":10,
						"TEXCOORD_1":11,
						"TEXCOORD_2":12,
						"TEXCOORD_3":13,
						"TEXCOORD_4":14
					},
					"indices":15,
					"material":1
				},
				{
					"attributes":{
						"POSITION":16,
						"NORMAL":17,
						"TEXCOORD_0":18,
						"TEXCOORD_1":19,
						"TEXCOORD_2":20,
						"TEXCOORD_3":21,
						"TEXCOORD_4":22
					},
					"indices":23,
					"material":2
				}
			]
		}
	],
	"textures":[
		{
			"sampler":0,
			"source":0
		},
		{
			"sampler":0,
			"source":1
		},
		{
			"sampler":0,
			"source":2
		},
		{
			"sampler":0,
			"source":3
		},
		{
			"sampler":0,
			"source":4
		},
		{
			"sampler":0,
			"source":5
		},
		{
			"sampler":0,
			"source":6
		},
		{
			"sampler":0,
			"source":7
		},
		{
			"sampler":0,
			"source":8
		}
	],
	"images":[
		{
			"mimeType":"image/png",
			"name":"mk_cosmetics_lightmap",
			"uri":"petfood/mk_cosmetics_lightmap.png"
		},
		{
			"mimeType":"image/jpeg",
			"name":"Image_1",
			"uri":"petfood/Image_1.jpg"
		},
		{
			"mimeType":"image/png",
			"name":"Image_1",
			"uri":"petfood/Image_1.png"
		},
		{
			"mimeType":"image/png",
			"name":"AtlasColorTexture",
			"uri":"petfood/AtlasColorTexture.png"
		},
		{
			"mimeType":"image/png",
			"name":"AtlasGrayTexture",
			"uri":"petfood/AtlasGrayTexture.png"
		},
		{
			"mimeType":"image/png",
			"name":"gingerbread_cookie_metallic",
			"uri":"petfood/gingerbread_cookie_metallic.png"
		},
		{
			"mimeType":"image/png",
			"name":"gingerbread_cookie_Gingerbread_Cookie_normal",
			"uri":"petfood/gingerbread_cookie_Gingerbread_Cookie_normal.png"
		},
		{
			"mimeType":"image/png",
			"name":"gingerbread_cookie_baseColor",
			"uri":"petfood/gingerbread_cookie_baseColor.png"
		},
		{
			"mimeType":"image/png",
			"name":"gingerbread_cookie_metallic-gingerbread_cookie_roughness",
			"uri":"petfood/gingerbread_cookie_metallic-gingerbread_cookie_roughness.png"
		}
	],
	"accessors":[
		{
			"bufferView":0,
			"componentType":5126,
			"count":7379,
			"max":[
				0.02052757330238819,
				0.04897473752498627,
				0.032308921217918396
			],
			"min":[
				-0.02924381010234356,
				-0.034827299416065216,
				-0.006805631332099438
			],
			"type":"VEC3"
		},
		{
			"bufferView":1,
			"componentType":5126,
			"count":7379,
			"type":"VEC3"
		},
		{
			"bufferView":2,
			"componentType":5126,
			"count":7379,
			"type":"VEC2"
		},
		{
			"bufferView":3,
			"componentType":5126,
			"count":7379,
			"type":"VEC2"
		},
		{
			"bufferView":4,
			"componentType":5126,
			"count":7379,
			"type":"VEC2"
		},
		{
			"bufferView":5,
			"componentType":5126,
			"count":7379,
			"type":"VEC2"
		},
		{
			"bufferView":6,
			"componentType":5126,
			"count":7379,
			"type":"VEC2"
		},
		{
			"bufferView":7,
			"componentType":5123,
			"count":29316,
			"type":"SCALAR"
		},
		{
			"bufferView":8,
			"componentType":5126,
			"count":1915,
			"max":[
				0.022023823112249374,
				-0.022396981716156006,
				0.010126085951924324
			],
			"min":[
				0.0019446471706032753,
				-0.03824098780751228,
				-0.011164828203618526
			],
			"type":"VEC3"
		},
		{
			"bufferView":9,
			"componentType":5126,
			"count":1915,
			"type":"VEC3"
		},
		{
			"bufferView":10,
			"componentType":5126,
			"count":1915,
			"type":"VEC2"
		},
		{
			"bufferView":11,
			"componentType":5126,
			"count":1915,
			"type":"VEC2"
		},
		{
			"bufferView":12,
			"componentType":5126,
			"count":1915,
			"type":"VEC2"
		},
		{
			"bufferView":13,
			"componentType":5126,
			"count":1915,
			"type":"VEC2"
		},
		{
			"bufferView":14,
			"componentType":5126,
			"count":1915,
			"type":"VEC2"
		},
		{
			"bufferView":15,
			"componentType":5123,
			"count":4404,
			"type":"SCALAR"
		},
		{
			"bufferView":16,
			"componentType":5126,
			"count":30536,
			"max":[
				0.021253526210784912,
				-0.021938148885965347,
				0.007729432545602322
			],
			"min":[
				0.0030116564594209194,
				-0.03249368816614151,
				-0.010470481589436531
			],
			"type":"VEC3"
		},
		{
			"bufferView":17,
			"componentType":5126,
			"count":30536,
			"type":"VEC3"
		},
		{
			"bufferView":18,
			"componentType":5126,
			"count":30536,
			"type":"VEC2"
		},
		{
			"bufferView":19,
			"componentType":5126,
			"count":30536,
			"type":"VEC2"
		},
		{
			"bufferView":20,
			"componentType":5126,
			"count":30536,
			"type":"VEC2"
		},
		{
			"bufferView":21,
			"componentType":5126,
			"count":30536,
			"type":"VEC2"
		},
		{
			"bufferView":22,
			"componentType":5126,
			"count":30536,
			"type":"VEC2"
		},
		{
			"bufferView":23,
			"componentType":5123,
			"count":74844,
			"type":"SCALAR"
		}
	],
	"bufferViews":[
		{
			"buffer":0,
			"byteLength":88548,
			"byteOffset":0,
			"target":34962
		},
		{
			"buffer":0,
			"byteLength":88548,
			"byteOffset":88548,
			"target":34962
		},
		{
			"buffer":0,
			"byteLength":59032,
			"byteOffset":177096,
			"target":34962
		},
		{
			"buffer":0,
			"byteLength":59032,
			"byteOffset":236128,
			"target":34962
		},
		{
			"buffer":0,
			"byteLength":59032,
			"byteOffset":295160,
			"target":34962
		},
		{
			"buffer":0,
			"byteLength":59032,
			"byteOffset":354192,
			"target":34962
		},
		{
			"buffer":0,
			"byteLength":59032,
			"byteOffset":413224,
			"target":34962
		},
		{
			"buffer":0,
			"byteLength":58632,
			"byteOffset":472256,
			"target":34963
		},
		{
			"buffer":0,
			"byteLength":22980,
			"byteOffset":530888,
			"target":34962
		},
		{
			"buffer":0,
			"byteLength":22980,
			"byteOffset":553868,
			"target":34962
		},
		{
			"buffer":0,
			"byteLength":15320,
			"byteOffset":576848,
			"target":34962
		},
		{
			"buffer":0,
			"byteLength":15320,
			"byteOffset":592168,
			"target":34962
		},
		{
			"buffer":0,
			"byteLength":15320,
			"byteOffset":607488,
			"target":34962
		},
		{
			"buffer":0,
			"byteLength":15320,
			"byteOffset":622808,
			"target":34962
		},
		{
			"buffer":0,
			"byteLength":15320,
			"byteOffset":638128,
			"target":34962
		},
		{
			"buffer":0,
			"byteLength":8808,
			"byteOffset":653448,
			"target":34963
		},
		{
			"buffer":0,
			"byteLength":366432,
			"byteOffset":662256,
			"target":34962
		},
		{
			"buffer":0,
			"byteLength":366432,
			"byteOffset":1028688,
			"target":34962
		},
		{
			"buffer":0,
			"byteLength":244288,
			"byteOffset":1395120,
			"target":34962
		},
		{
			"buffer":0,
			"byteLength":244288,
			"byteOffset":1639408,
			"target":34962
		},
		{
			"buffer":0,
			"byteLength":244288,
			"byteOffset":1883696,
			"target":34962
		},
		{
			"buffer":0,
			"byteLength":244288,
			"byteOffset":2127984,
			"target":34962
		},
		{
			"buffer":0,
			"byteLength":244288,
			"byteOffset":2372272,
			"target":34962
		},
		{
			"buffer":0,
			"byteLength":149688,
			"byteOffset":2616560,
			"target":34963
		}
	],
	"samplers":[
		{
			"magFilter":9729,
			"minFilter":9987
		}
	],
	"buffers":[
		{
			"byteLength":2766248,
			"uri":"petfood.bin"
		}
	]
}
