{
	"asset":{
		"generator":"Khronos glTF Blender I/O v4.4.55",
		"version":"2.0"
	},
	"scene":0,
	"scenes":[
		{
			"name":"Scene",
			"nodes":[
				3
			]
		}
	],
	"nodes":[
		{
			"name":"Lid",
			"rotation":[
				0,
				1.1920928955078125e-07,
				0,
				1
			],
			"scale":[
				1,
				0.9999999403953552,
				1
			],
			"translation":[
				-3.706535078862316e-12,
				0.09843344986438751,
				0
			]
		},
		{
			"children":[
				0
			],
			"name":"Container",
			"rotation":[
				0,
				1.4901161193847656e-08,
				0,
				1
			],
			"scale":[
				1,
				0.9999999403953552,
				1
			],
			"translation":[
				1.1641532182693481e-10,
				-0.01695004105567932,
				0.0029868781566619873
			]
		},
		{
			"mesh":0,
			"name":"mk_sample1_mesh",
			"skin":0
		},
		{
			"children":[
				2,
				1
			],
			"name":"mk_sample1_rig",
			"rotation":[
				0,
				0.361764520406723,
				0,
				0.9322695136070251
			],
			"scale":[
				0.7854514718055725,
				0.7854514122009277,
				0.7854514718055725
			]
		}
	],
	"animations":[
		{
			"channels":[
				{
					"sampler":0,
					"target":{
						"node":1,
						"path":"translation"
					}
				},
				{
					"sampler":1,
					"target":{
						"node":1,
						"path":"rotation"
					}
				},
				{
					"sampler":2,
					"target":{
						"node":1,
						"path":"scale"
					}
				},
				{
					"sampler":3,
					"target":{
						"node":0,
						"path":"translation"
					}
				},
				{
					"sampler":4,
					"target":{
						"node":0,
						"path":"rotation"
					}
				},
				{
					"sampler":5,
					"target":{
						"node":0,
						"path":"scale"
					}
				}
			],
			"name":"sample1",
			"samplers":[
				{
					"input":9,
					"interpolation":"LINEAR",
					"output":10
				},
				{
					"input":9,
					"interpolation":"LINEAR",
					"output":11
				},
				{
					"input":12,
					"interpolation":"STEP",
					"output":13
				},
				{
					"input":9,
					"interpolation":"LINEAR",
					"output":14
				},
				{
					"input":9,
					"interpolation":"LINEAR",
					"output":15
				},
				{
					"input":12,
					"interpolation":"STEP",
					"output":16
				}
			]
		}
	],
	"materials":[
		{
			"doubleSided":true,
			"name":"ColorAtlas_Container",
			"pbrMetallicRoughness":{
				"baseColorTexture":{
					"index":0,
					"texCoord":1
				},
				"metallicRoughnessTexture":{
					"index":1,
					"texCoord":2
				}
			}
		}
	],
	"meshes":[
		{
			"name":"Cylinder.004",
			"primitives":[
				{
					"attributes":{
						"POSITION":0,
						"NORMAL":1,
						"TEXCOORD_0":2,
						"TEXCOORD_1":3,
						"TEXCOORD_2":4,
						"JOINTS_0":5,
						"WEIGHTS_0":6
					},
					"indices":7,
					"material":0
				}
			]
		}
	],
	"textures":[
		{
			"sampler":0,
			"source":0
		},
		{
			"sampler":0,
			"source":1
		}
	],
	"images":[
		{
			"mimeType":"image/png",
			"name":"AtlasColorTexture",
			"uri":"sample1/AtlasColorTexture.png"
		},
		{
			"mimeType":"image/png",
			"name":"AtlasGrayTexture",
			"uri":"sample1/AtlasGrayTexture.png"
		}
	],
	"skins":[
		{
			"inverseBindMatrices":8,
			"joints":[
				1,
				0
			],
			"name":"mk_sample1_rig"
		}
	],
	"accessors":[
		{
			"bufferView":0,
			"componentType":5126,
			"count":1531,
			"max":[
				0.04459783434867859,
				0.08097905665636063,
				0.044982731342315674
			],
			"min":[
				-0.041432905942201614,
				0.008868223987519741,
				-0.04151877760887146
			],
			"type":"VEC3"
		},
		{
			"bufferView":1,
			"componentType":5126,
			"count":1531,
			"type":"VEC3"
		},
		{
			"bufferView":2,
			"componentType":5126,
			"count":1531,
			"type":"VEC2"
		},
		{
			"bufferView":3,
			"componentType":5126,
			"count":1531,
			"type":"VEC2"
		},
		{
			"bufferView":4,
			"componentType":5126,
			"count":1531,
			"type":"VEC2"
		},
		{
			"bufferView":5,
			"componentType":5121,
			"count":1531,
			"type":"VEC4"
		},
		{
			"bufferView":6,
			"componentType":5126,
			"count":1531,
			"type":"VEC4"
		},
		{
			"bufferView":7,
			"componentType":5123,
			"count":5718,
			"type":"SCALAR"
		},
		{
			"bufferView":8,
			"componentType":5126,
			"count":2,
			"type":"MAT4"
		},
		{
			"bufferView":9,
			"componentType":5126,
			"count":70,
			"max":[
				2.9166666666666665
			],
			"min":[
				0.041666666666666664
			],
			"type":"SCALAR"
		},
		{
			"bufferView":10,
			"componentType":5126,
			"count":70,
			"type":"VEC3"
		},
		{
			"bufferView":11,
			"componentType":5126,
			"count":70,
			"type":"VEC4"
		},
		{
			"bufferView":12,
			"componentType":5126,
			"count":2,
			"max":[
				2.9166666666666665
			],
			"min":[
				0.041666666666666664
			],
			"type":"SCALAR"
		},
		{
			"bufferView":13,
			"componentType":5126,
			"count":2,
			"type":"VEC3"
		},
		{
			"bufferView":14,
			"componentType":5126,
			"count":70,
			"type":"VEC3"
		},
		{
			"bufferView":15,
			"componentType":5126,
			"count":70,
			"type":"VEC4"
		},
		{
			"bufferView":16,
			"componentType":5126,
			"count":2,
			"type":"VEC3"
		}
	],
	"bufferViews":[
		{
			"buffer":0,
			"byteLength":18372,
			"byteOffset":0,
			"target":34962
		},
		{
			"buffer":0,
			"byteLength":18372,
			"byteOffset":18372,
			"target":34962
		},
		{
			"buffer":0,
			"byteLength":12248,
			"byteOffset":36744,
			"target":34962
		},
		{
			"buffer":0,
			"byteLength":12248,
			"byteOffset":48992,
			"target":34962
		},
		{
			"buffer":0,
			"byteLength":12248,
			"byteOffset":61240,
			"target":34962
		},
		{
			"buffer":0,
			"byteLength":6124,
			"byteOffset":73488,
			"target":34962
		},
		{
			"buffer":0,
			"byteLength":24496,
			"byteOffset":79612,
			"target":34962
		},
		{
			"buffer":0,
			"byteLength":11436,
			"byteOffset":104108,
			"target":34963
		},
		{
			"buffer":0,
			"byteLength":128,
			"byteOffset":115544
		},
		{
			"buffer":0,
			"byteLength":280,
			"byteOffset":115672
		},
		{
			"buffer":0,
			"byteLength":840,
			"byteOffset":115952
		},
		{
			"buffer":0,
			"byteLength":1120,
			"byteOffset":116792
		},
		{
			"buffer":0,
			"byteLength":8,
			"byteOffset":117912
		},
		{
			"buffer":0,
			"byteLength":24,
			"byteOffset":117920
		},
		{
			"buffer":0,
			"byteLength":840,
			"byteOffset":117944
		},
		{
			"buffer":0,
			"byteLength":1120,
			"byteOffset":118784
		},
		{
			"buffer":0,
			"byteLength":24,
			"byteOffset":119904
		}
	],
	"samplers":[
		{
			"magFilter":9729,
			"minFilter":9987
		}
	],
	"buffers":[
		{
			"byteLength":119928,
			"uri":"sample1.bin"
		}
	]
}
