{
	"asset":{
		"generator":"Khronos glTF Blender I/O v4.4.55",
		"version":"2.0"
	},
	"scene":0,
	"scenes":[
		{
			"name":"Scene",
			"nodes":[
				2
			]
		}
	],
	"nodes":[
		{
			"name":"Bone.001",
			"rotation":[
				-0.5868767499923706,
				-4.118289353982618e-08,
				0.8096762895584106,
				1.8502836951483914e-07
			],
			"scale":[
				1.0000001192092896,
				1.0000001192092896,
				1.0000001192092896
			],
			"translation":[
				0,
				0.20277714729309082,
				5.4489795786594186e-08
			]
		},
		{
			"mesh":0,
			"name":"mk_sample2_mesh",
			"skin":0
		},
		{
			"children":[
				1,
				0
			],
			"name":"mk_sample2_rig",
			"scale":[
				0.062475018203258514,
				0.062475018203258514,
				0.062475018203258514
			],
			"translation":[
				-0.05483859032392502,
				-0.004573918879032135,
				0
			]
		}
	],
	"animations":[
		{
			"channels":[
				{
					"sampler":0,
					"target":{
						"node":0,
						"path":"translation"
					}
				},
				{
					"sampler":1,
					"target":{
						"node":0,
						"path":"rotation"
					}
				},
				{
					"sampler":2,
					"target":{
						"node":0,
						"path":"scale"
					}
				}
			],
			"name":"sample2",
			"samplers":[
				{
					"input":9,
					"interpolation":"LINEAR",
					"output":10
				},
				{
					"input":9,
					"interpolation":"LINEAR",
					"output":11
				},
				{
					"input":12,
					"interpolation":"STEP",
					"output":13
				}
			]
		}
	],
	"materials":[
		{
			"doubleSided":true,
			"name":"Swab_mesh1",
			"pbrMetallicRoughness":{
				"baseColorTexture":{
					"index":0,
					"texCoord":1
				},
				"metallicFactor":0,
				"roughnessFactor":0.5
			}
		}
	],
	"meshes":[
		{
			"name":"Cylinder.005",
			"primitives":[
				{
					"attributes":{
						"POSITION":0,
						"NORMAL":1,
						"TEXCOORD_0":2,
						"TEXCOORD_1":3,
						"TEXCOORD_2":4,
						"JOINTS_0":5,
						"WEIGHTS_0":6
					},
					"indices":7,
					"material":0
				}
			]
		}
	],
	"textures":[
		{
			"sampler":0,
			"source":0
		}
	],
	"images":[
		{
			"mimeType":"image/png",
			"name":"AtlasColorTexture",
			"uri":"sample2/AtlasColorTexture.png"
		}
	],
	"skins":[
		{
			"inverseBindMatrices":8,
			"joints":[
				0
			],
			"name":"mk_sample2_rig"
		}
	],
	"accessors":[
		{
			"bufferView":0,
			"componentType":5126,
			"count":272,
			"max":[
				-0.051263876259326935,
				0.040404561907052994,
				0.0035747080110013485
			],
			"min":[
				-0.0584133043885231,
				-0.061449695378541946,
				-0.0035747226793318987
			],
			"type":"VEC3"
		},
		{
			"bufferView":1,
			"componentType":5126,
			"count":272,
			"type":"VEC3"
		},
		{
			"bufferView":2,
			"componentType":5126,
			"count":272,
			"type":"VEC2"
		},
		{
			"bufferView":3,
			"componentType":5126,
			"count":272,
			"type":"VEC2"
		},
		{
			"bufferView":4,
			"componentType":5126,
			"count":272,
			"type":"VEC2"
		},
		{
			"bufferView":5,
			"componentType":5121,
			"count":272,
			"type":"VEC4"
		},
		{
			"bufferView":6,
			"componentType":5126,
			"count":272,
			"type":"VEC4"
		},
		{
			"bufferView":7,
			"componentType":5123,
			"count":1032,
			"type":"SCALAR"
		},
		{
			"bufferView":8,
			"componentType":5126,
			"count":1,
			"type":"MAT4"
		},
		{
			"bufferView":9,
			"componentType":5126,
			"count":121,
			"max":[
				5.041666666666667
			],
			"min":[
				0.041666666666666664
			],
			"type":"SCALAR"
		},
		{
			"bufferView":10,
			"componentType":5126,
			"count":121,
			"type":"VEC3"
		},
		{
			"bufferView":11,
			"componentType":5126,
			"count":121,
			"type":"VEC4"
		},
		{
			"bufferView":12,
			"componentType":5126,
			"count":2,
			"max":[
				5.041666666666667
			],
			"min":[
				0.041666666666666664
			],
			"type":"SCALAR"
		},
		{
			"bufferView":13,
			"componentType":5126,
			"count":2,
			"type":"VEC3"
		}
	],
	"bufferViews":[
		{
			"buffer":0,
			"byteLength":3264,
			"byteOffset":0,
			"target":34962
		},
		{
			"buffer":0,
			"byteLength":3264,
			"byteOffset":3264,
			"target":34962
		},
		{
			"buffer":0,
			"byteLength":2176,
			"byteOffset":6528,
			"target":34962
		},
		{
			"buffer":0,
			"byteLength":2176,
			"byteOffset":8704,
			"target":34962
		},
		{
			"buffer":0,
			"byteLength":2176,
			"byteOffset":10880,
			"target":34962
		},
		{
			"buffer":0,
			"byteLength":1088,
			"byteOffset":13056,
			"target":34962
		},
		{
			"buffer":0,
			"byteLength":4352,
			"byteOffset":14144,
			"target":34962
		},
		{
			"buffer":0,
			"byteLength":2064,
			"byteOffset":18496,
			"target":34963
		},
		{
			"buffer":0,
			"byteLength":64,
			"byteOffset":20560
		},
		{
			"buffer":0,
			"byteLength":484,
			"byteOffset":20624
		},
		{
			"buffer":0,
			"byteLength":1452,
			"byteOffset":21108
		},
		{
			"buffer":0,
			"byteLength":1936,
			"byteOffset":22560
		},
		{
			"buffer":0,
			"byteLength":8,
			"byteOffset":24496
		},
		{
			"buffer":0,
			"byteLength":24,
			"byteOffset":24504
		}
	],
	"samplers":[
		{
			"magFilter":9729,
			"minFilter":9987
		}
	],
	"buffers":[
		{
			"byteLength":24528,
			"uri":"sample2.bin"
		}
	]
}
