{
	"asset":{
		"generator":"Khronos glTF Blender I/O v4.4.55",
		"version":"2.0"
	},
	"scene":0,
	"scenes":[
		{
			"name":"Scene",
			"nodes":[
				4
			]
		}
	],
	"nodes":[
		{
			"name":"Hands",
			"rotation":[
				0.22270335257053375,
				-5.98960951947447e-08,
				-1.368268431889419e-08,
				0.9748862385749817
			],
			"translation":[
				-1.654361027890829e-24,
				0.2119918167591095,
				0
			]
		},
		{
			"children":[
				0
			],
			"name":"Arms",
			"rotation":[
				-0.7071067690849304,
				0,
				0,
				0.7071067690849304
			],
			"translation":[
				0,
				0.001476883888244629,
				0.2986816465854645
			]
		},
		{
			"mesh":0,
			"name":"mk_arms",
			"skin":0
		},
		{
			"mesh":1,
			"name":"mk_screen",
			"skin":0
		},
		{
			"children":[
				2,
				3,
				1
			],
			"name":"mk_tablet_rig"
		}
	],
	"animations":[
		{
			"channels":[
				{
					"sampler":0,
					"target":{
						"node":1,
						"path":"translation"
					}
				},
				{
					"sampler":1,
					"target":{
						"node":1,
						"path":"rotation"
					}
				},
				{
					"sampler":2,
					"target":{
						"node":1,
						"path":"scale"
					}
				},
				{
					"sampler":3,
					"target":{
						"node":0,
						"path":"translation"
					}
				},
				{
					"sampler":4,
					"target":{
						"node":0,
						"path":"rotation"
					}
				},
				{
					"sampler":5,
					"target":{
						"node":0,
						"path":"scale"
					}
				}
			],
			"name":"tabletAnim",
			"samplers":[
				{
					"input":35,
					"interpolation":"LINEAR",
					"output":36
				},
				{
					"input":35,
					"interpolation":"LINEAR",
					"output":37
				},
				{
					"input":38,
					"interpolation":"STEP",
					"output":39
				},
				{
					"input":38,
					"interpolation":"LINEAR",
					"output":40
				},
				{
					"input":35,
					"interpolation":"LINEAR",
					"output":41
				},
				{
					"input":38,
					"interpolation":"LINEAR",
					"output":42
				}
			]
		}
	],
	"materials":[
		{
			"doubleSided":true,
			"name":"Body",
			"pbrMetallicRoughness":{
				"baseColorFactor":[
					0.1410743147134781,
					0.1410743147134781,
					0.1410743147134781,
					1
				],
				"metallicFactor":0.4820437431335449,
				"roughnessFactor":0.2321881353855133
			}
		},
		{
			"doubleSided":true,
			"name":"bezel",
			"pbrMetallicRoughness":{
				"baseColorFactor":[
					0,
					0,
					0,
					1
				],
				"metallicFactor":0,
				"roughnessFactor":0
			}
		},
		{
			"doubleSided":true,
			"name":"Nurse__Body_Low",
			"normalTexture":{
				"index":0,
				"scale":0.4000000059604645
			},
			"occlusionTexture":{
				"index":1
			},
			"pbrMetallicRoughness":{
				"baseColorTexture":{
					"index":2
				},
				"metallicRoughnessTexture":{
					"index":1
				}
			}
		},
		{
			"doubleSided":true,
			"name":"stretch_polyamide_fabric",
			"normalTexture":{
				"index":3,
				"scale":2
			},
			"pbrMetallicRoughness":{
				"baseColorTexture":{
					"index":4
				},
				"metallicFactor":0,
				"roughnessFactor":0.5
			}
		},
		{
			"doubleSided":true,
			"name":"screen",
			"pbrMetallicRoughness":{
				"baseColorTexture":{
					"index":5
				},
				"metallicFactor":0,
				"roughnessFactor":0
			}
		}
	],
	"meshes":[
		{
			"name":"iPad Pro 2020_Body_0.002",
			"primitives":[
				{
					"attributes":{
						"POSITION":0,
						"NORMAL":1,
						"TEXCOORD_0":2,
						"TEXCOORD_1":3,
						"JOINTS_0":4,
						"WEIGHTS_0":5
					},
					"indices":6,
					"material":0
				},
				{
					"attributes":{
						"POSITION":7,
						"NORMAL":8,
						"TEXCOORD_0":9,
						"TEXCOORD_1":10,
						"JOINTS_0":11,
						"WEIGHTS_0":12
					},
					"indices":13,
					"material":1
				},
				{
					"attributes":{
						"POSITION":14,
						"NORMAL":15,
						"TEXCOORD_0":16,
						"TEXCOORD_1":17,
						"JOINTS_0":18,
						"WEIGHTS_0":19
					},
					"indices":20,
					"material":2
				},
				{
					"attributes":{
						"POSITION":21,
						"NORMAL":22,
						"TEXCOORD_0":23,
						"TEXCOORD_1":24,
						"JOINTS_0":25,
						"WEIGHTS_0":26
					},
					"indices":27,
					"material":3
				}
			]
		},
		{
			"name":"iPad Pro 2020_Body_0.003",
			"primitives":[
				{
					"attributes":{
						"POSITION":29,
						"NORMAL":30,
						"TEXCOORD_0":31,
						"JOINTS_0":32,
						"WEIGHTS_0":33
					},
					"indices":34,
					"material":4
				}
			]
		}
	],
	"textures":[
		{
			"sampler":0,
			"source":0
		},
		{
			"sampler":0,
			"source":1
		},
		{
			"sampler":0,
			"source":2
		},
		{
			"sampler":0,
			"source":3
		},
		{
			"sampler":0,
			"source":4
		},
		{
			"sampler":0,
			"source":5
		}
	],
	"images":[
		{
			"mimeType":"image/png",
			"name":"Image_2",
			"uri":"tabletTextures/Image_2.png"
		},
		{
			"mimeType":"image/png",
			"name":"Image_1",
			"uri":"tabletTextures/Image_1.png"
		},
		{
			"mimeType":"image/png",
			"name":"Plane_Aggregated",
			"uri":"tabletTextures/Plane_Aggregated.png"
		},
		{
			"mimeType":"image/png",
			"name":"stretch_polyamide_fabric_Stretch_Polyamide_Fabric_normal",
			"uri":"tabletTextures/stretch_polyamide_fabric_Stretch_Polyamide_Fabric_normal.png"
		},
		{
			"mimeType":"image/png",
			"name":"stretch_polyamide_fabric_baseColor",
			"uri":"tabletTextures/stretch_polyamide_fabric_baseColor.png"
		},
		{
			"mimeType":"image/png",
			"name":"iPdaTexture2",
			"uri":"tabletTextures/iPdaTexture2.png"
		}
	],
	"skins":[
		{
			"inverseBindMatrices":28,
			"joints":[
				1,
				0
			],
			"name":"mk_tablet_rig"
		}
	],
	"accessors":[
		{
			"bufferView":0,
			"componentType":5126,
			"count":2675,
			"max":[
				0.16342304646968842,
				0.21519027650356293,
				0.03912496566772461
			],
			"min":[
				-0.16344499588012695,
				-0.018174849450588226,
				-0.06478597223758698
			],
			"type":"VEC3"
		},
		{
			"bufferView":1,
			"componentType":5126,
			"count":2675,
			"type":"VEC3"
		},
		{
			"bufferView":2,
			"componentType":5126,
			"count":2675,
			"type":"VEC2"
		},
		{
			"bufferView":3,
			"componentType":5126,
			"count":2675,
			"type":"VEC2"
		},
		{
			"bufferView":4,
			"componentType":5121,
			"count":2675,
			"type":"VEC4"
		},
		{
			"bufferView":5,
			"componentType":5126,
			"count":2675,
			"type":"VEC4"
		},
		{
			"bufferView":6,
			"componentType":5123,
			"count":4734,
			"type":"SCALAR"
		},
		{
			"bufferView":7,
			"componentType":5126,
			"count":110,
			"max":[
				0.1620817631483078,
				0.21404263377189636,
				0.03877353295683861
			],
			"min":[
				-0.16210077702999115,
				-0.01414404809474945,
				-0.05760837346315384
			],
			"type":"VEC3"
		},
		{
			"bufferView":8,
			"componentType":5126,
			"count":110,
			"type":"VEC3"
		},
		{
			"bufferView":9,
			"componentType":5126,
			"count":110,
			"type":"VEC2"
		},
		{
			"bufferView":10,
			"componentType":5126,
			"count":110,
			"type":"VEC2"
		},
		{
			"bufferView":11,
			"componentType":5121,
			"count":110,
			"type":"VEC4"
		},
		{
			"bufferView":12,
			"componentType":5126,
			"count":110,
			"type":"VEC4"
		},
		{
			"bufferView":13,
			"componentType":5123,
			"count":318,
			"type":"SCALAR"
		},
		{
			"bufferView":14,
			"componentType":5126,
			"count":9318,
			"max":[
				0.27932292222976685,
				0.1273830682039261,
				0.1209888905286789
			],
			"min":[
				-0.2819640040397644,
				-0.05368399992585182,
				-0.050379738211631775
			],
			"type":"VEC3"
		},
		{
			"bufferView":15,
			"componentType":5126,
			"count":9318,
			"type":"VEC3"
		},
		{
			"bufferView":16,
			"componentType":5126,
			"count":9318,
			"type":"VEC2"
		},
		{
			"bufferView":17,
			"componentType":5126,
			"count":9318,
			"type":"VEC2"
		},
		{
			"bufferView":18,
			"componentType":5121,
			"count":9318,
			"type":"VEC4"
		},
		{
			"bufferView":19,
			"componentType":5126,
			"count":9318,
			"type":"VEC4"
		},
		{
			"bufferView":20,
			"componentType":5123,
			"count":51852,
			"type":"SCALAR"
		},
		{
			"bufferView":21,
			"componentType":5126,
			"count":1168,
			"max":[
				0.4330555200576782,
				0.06153417006134987,
				0.30013805627822876
			],
			"min":[
				-0.43569275736808777,
				-0.07630734890699387,
				0.0536874495446682
			],
			"type":"VEC3"
		},
		{
			"bufferView":22,
			"componentType":5126,
			"count":1168,
			"type":"VEC3"
		},
		{
			"bufferView":23,
			"componentType":5126,
			"count":1168,
			"type":"VEC2"
		},
		{
			"bufferView":24,
			"componentType":5126,
			"count":1168,
			"type":"VEC2"
		},
		{
			"bufferView":25,
			"componentType":5121,
			"count":1168,
			"type":"VEC4"
		},
		{
			"bufferView":26,
			"componentType":5126,
			"count":1168,
			"type":"VEC4"
		},
		{
			"bufferView":27,
			"componentType":5123,
			"count":5004,
			"type":"SCALAR"
		},
		{
			"bufferView":28,
			"componentType":5126,
			"count":2,
			"type":"MAT4"
		},
		{
			"bufferView":29,
			"componentType":5126,
			"count":61,
			"max":[
				0.1542564183473587,
				0.207394540309906,
				0.035965558141469955
			],
			"min":[
				-0.15427540242671967,
				-0.007495951373130083,
				-0.05480039864778519
			],
			"type":"VEC3"
		},
		{
			"bufferView":30,
			"componentType":5126,
			"count":61,
			"type":"VEC3"
		},
		{
			"bufferView":31,
			"componentType":5126,
			"count":61,
			"type":"VEC2"
		},
		{
			"bufferView":32,
			"componentType":5121,
			"count":61,
			"type":"VEC4"
		},
		{
			"bufferView":33,
			"componentType":5126,
			"count":61,
			"type":"VEC4"
		},
		{
			"bufferView":34,
			"componentType":5123,
			"count":150,
			"type":"SCALAR"
		},
		{
			"bufferView":35,
			"componentType":5126,
			"count":20,
			"max":[
				0.8
			],
			"min":[
				0.04
			],
			"type":"SCALAR"
		},
		{
			"bufferView":36,
			"componentType":5126,
			"count":20,
			"type":"VEC3"
		},
		{
			"bufferView":37,
			"componentType":5126,
			"count":20,
			"type":"VEC4"
		},
		{
			"bufferView":38,
			"componentType":5126,
			"count":2,
			"max":[
				0.8
			],
			"min":[
				0.04
			],
			"type":"SCALAR"
		},
		{
			"bufferView":39,
			"componentType":5126,
			"count":2,
			"type":"VEC3"
		},
		{
			"bufferView":40,
			"componentType":5126,
			"count":2,
			"type":"VEC3"
		},
		{
			"bufferView":41,
			"componentType":5126,
			"count":20,
			"type":"VEC4"
		},
		{
			"bufferView":42,
			"componentType":5126,
			"count":2,
			"type":"VEC3"
		}
	],
	"bufferViews":[
		{
			"buffer":0,
			"byteLength":32100,
			"byteOffset":0,
			"target":34962
		},
		{
			"buffer":0,
			"byteLength":32100,
			"byteOffset":32100,
			"target":34962
		},
		{
			"buffer":0,
			"byteLength":21400,
			"byteOffset":64200,
			"target":34962
		},
		{
			"buffer":0,
			"byteLength":21400,
			"byteOffset":85600,
			"target":34962
		},
		{
			"buffer":0,
			"byteLength":10700,
			"byteOffset":107000,
			"target":34962
		},
		{
			"buffer":0,
			"byteLength":42800,
			"byteOffset":117700,
			"target":34962
		},
		{
			"buffer":0,
			"byteLength":9468,
			"byteOffset":160500,
			"target":34963
		},
		{
			"buffer":0,
			"byteLength":1320,
			"byteOffset":169968,
			"target":34962
		},
		{
			"buffer":0,
			"byteLength":1320,
			"byteOffset":171288,
			"target":34962
		},
		{
			"buffer":0,
			"byteLength":880,
			"byteOffset":172608,
			"target":34962
		},
		{
			"buffer":0,
			"byteLength":880,
			"byteOffset":173488,
			"target":34962
		},
		{
			"buffer":0,
			"byteLength":440,
			"byteOffset":174368,
			"target":34962
		},
		{
			"buffer":0,
			"byteLength":1760,
			"byteOffset":174808,
			"target":34962
		},
		{
			"buffer":0,
			"byteLength":636,
			"byteOffset":176568,
			"target":34963
		},
		{
			"buffer":0,
			"byteLength":111816,
			"byteOffset":177204,
			"target":34962
		},
		{
			"buffer":0,
			"byteLength":111816,
			"byteOffset":289020,
			"target":34962
		},
		{
			"buffer":0,
			"byteLength":74544,
			"byteOffset":400836,
			"target":34962
		},
		{
			"buffer":0,
			"byteLength":74544,
			"byteOffset":475380,
			"target":34962
		},
		{
			"buffer":0,
			"byteLength":37272,
			"byteOffset":549924,
			"target":34962
		},
		{
			"buffer":0,
			"byteLength":149088,
			"byteOffset":587196,
			"target":34962
		},
		{
			"buffer":0,
			"byteLength":103704,
			"byteOffset":736284,
			"target":34963
		},
		{
			"buffer":0,
			"byteLength":14016,
			"byteOffset":839988,
			"target":34962
		},
		{
			"buffer":0,
			"byteLength":14016,
			"byteOffset":854004,
			"target":34962
		},
		{
			"buffer":0,
			"byteLength":9344,
			"byteOffset":868020,
			"target":34962
		},
		{
			"buffer":0,
			"byteLength":9344,
			"byteOffset":877364,
			"target":34962
		},
		{
			"buffer":0,
			"byteLength":4672,
			"byteOffset":886708,
			"target":34962
		},
		{
			"buffer":0,
			"byteLength":18688,
			"byteOffset":891380,
			"target":34962
		},
		{
			"buffer":0,
			"byteLength":10008,
			"byteOffset":910068,
			"target":34963
		},
		{
			"buffer":0,
			"byteLength":128,
			"byteOffset":920076
		},
		{
			"buffer":0,
			"byteLength":732,
			"byteOffset":920204,
			"target":34962
		},
		{
			"buffer":0,
			"byteLength":732,
			"byteOffset":920936,
			"target":34962
		},
		{
			"buffer":0,
			"byteLength":488,
			"byteOffset":921668,
			"target":34962
		},
		{
			"buffer":0,
			"byteLength":244,
			"byteOffset":922156,
			"target":34962
		},
		{
			"buffer":0,
			"byteLength":976,
			"byteOffset":922400,
			"target":34962
		},
		{
			"buffer":0,
			"byteLength":300,
			"byteOffset":923376,
			"target":34963
		},
		{
			"buffer":0,
			"byteLength":80,
			"byteOffset":923676
		},
		{
			"buffer":0,
			"byteLength":240,
			"byteOffset":923756
		},
		{
			"buffer":0,
			"byteLength":320,
			"byteOffset":923996
		},
		{
			"buffer":0,
			"byteLength":8,
			"byteOffset":924316
		},
		{
			"buffer":0,
			"byteLength":24,
			"byteOffset":924324
		},
		{
			"buffer":0,
			"byteLength":24,
			"byteOffset":924348
		},
		{
			"buffer":0,
			"byteLength":320,
			"byteOffset":924372
		},
		{
			"buffer":0,
			"byteLength":24,
			"byteOffset":924692
		}
	],
	"samplers":[
		{
			"magFilter":9729,
			"minFilter":9987
		}
	],
	"buffers":[
		{
			"byteLength":924716,
			"uri":"tablet.bin"
		}
	]
}
