{
	"asset":{
		"generator":"Khronos glTF Blender I/O v4.4.55",
		"version":"2.0"
	},
	"extensionsUsed":[
		"KHR_materials_specular"
	],
	"scene":0,
	"scenes":[
		{
			"name":"Scene",
			"nodes":[
				3
			]
		}
	],
	"nodes":[
		{
			"name":"Bone",
			"rotation":[
				0.08684633672237396,
				0.7017533183097839,
				-0.08684633672237396,
				0.7017533183097839
			],
			"translation":[
				0.015516579151153564,
				0.048227183520793915,
				0.0392439179122448
			]
		},
		{
			"mesh":0,
			"name":"mk_thermometerScreen",
			"skin":0
		},
		{
			"children":[
				1
			],
			"mesh":1,
			"name":"mk_thermometer",
			"skin":0
		},
		{
			"children":[
				2,
				0
			],
			"name":"mk_thermometer_rig",
			"translation":[
				-0.08657211810350418,
				0.07690183073282242,
				0
			]
		}
	],
	"animations":[
		{
			"channels":[
				{
					"sampler":0,
					"target":{
						"node":0,
						"path":"translation"
					}
				},
				{
					"sampler":1,
					"target":{
						"node":0,
						"path":"rotation"
					}
				},
				{
					"sampler":2,
					"target":{
						"node":0,
						"path":"scale"
					}
				}
			],
			"name":"tempAnim",
			"samplers":[
				{
					"input":15,
					"interpolation":"LINEAR",
					"output":16
				},
				{
					"input":15,
					"interpolation":"LINEAR",
					"output":17
				},
				{
					"input":18,
					"interpolation":"STEP",
					"output":19
				}
			]
		}
	],
	"materials":[
		{
			"doubleSided":true,
			"name":"Material",
			"pbrMetallicRoughness":{
				"baseColorFactor":[
					0.726742148399353,
					0,
					0.8001260757446289,
					1
				],
				"metallicFactor":0,
				"roughnessFactor":0.5
			}
		},
		{
			"doubleSided":true,
			"extensions":{
				"KHR_materials_specular":{
					"specularColorFactor":[
						2.0,
						2.0,
						2.0
					]
				}
			},
			"name":"ColorAtlas_Thermometer",
			"pbrMetallicRoughness":{
				"baseColorTexture":{
					"index":0,
					"texCoord":1
				},
				"metallicRoughnessTexture":{
					"index":1,
					"texCoord":2
				}
			}
		}
	],
	"meshes":[
		{
			"name":"Cube.035",
			"primitives":[
				{
					"attributes":{
						"POSITION":0,
						"NORMAL":1,
						"TEXCOORD_0":2,
						"JOINTS_0":3,
						"WEIGHTS_0":4
					},
					"indices":5,
					"material":0
				}
			]
		},
		{
			"name":"Cube.034",
			"primitives":[
				{
					"attributes":{
						"POSITION":7,
						"NORMAL":8,
						"TEXCOORD_0":9,
						"TEXCOORD_1":10,
						"TEXCOORD_2":11,
						"JOINTS_0":12,
						"WEIGHTS_0":13
					},
					"indices":14,
					"material":1
				}
			]
		}
	],
	"textures":[
		{
			"sampler":0,
			"source":0
		},
		{
			"sampler":0,
			"source":1
		}
	],
	"images":[
		{
			"mimeType":"image/png",
			"name":"AtlasColorTexture",
			"uri":"thermometer/AtlasColorTexture.png"
		},
		{
			"mimeType":"image/png",
			"name":"AtlasGrayTexture",
			"uri":"thermometer/AtlasGrayTexture.png"
		}
	],
	"skins":[
		{
			"inverseBindMatrices":6,
			"joints":[
				0
			],
			"name":"mk_thermometer_rig"
		}
	],
	"accessors":[
		{
			"bufferView":0,
			"componentType":5126,
			"count":8,
			"max":[
				-0.0669000893831253,
				0.12911194562911987,
				0.0446053184568882
			],
			"min":[
				-0.07502393424510956,
				0.12149308621883392,
				0.033132489770650864
			],
			"type":"VEC3"
		},
		{
			"bufferView":1,
			"componentType":5126,
			"count":8,
			"type":"VEC3"
		},
		{
			"bufferView":2,
			"componentType":5126,
			"count":8,
			"type":"VEC2"
		},
		{
			"bufferView":3,
			"componentType":5121,
			"count":8,
			"type":"VEC4"
		},
		{
			"bufferView":4,
			"componentType":5126,
			"count":8,
			"type":"VEC4"
		},
		{
			"bufferView":5,
			"componentType":5123,
			"count":12,
			"type":"SCALAR"
		},
		{
			"bufferView":6,
			"componentType":5126,
			"count":1,
			"type":"MAT4"
		},
		{
			"bufferView":7,
			"componentType":5126,
			"count":1034,
			"max":[
				-0.06577500700950623,
				0.13283145427703857,
				0.0700245127081871
			],
			"min":[
				-0.08071181923151016,
				0.08746809512376785,
				0.009381099604070187
			],
			"type":"VEC3"
		},
		{
			"bufferView":8,
			"componentType":5126,
			"count":1034,
			"type":"VEC3"
		},
		{
			"bufferView":9,
			"componentType":5126,
			"count":1034,
			"type":"VEC2"
		},
		{
			"bufferView":10,
			"componentType":5126,
			"count":1034,
			"type":"VEC2"
		},
		{
			"bufferView":11,
			"componentType":5126,
			"count":1034,
			"type":"VEC2"
		},
		{
			"bufferView":12,
			"componentType":5121,
			"count":1034,
			"type":"VEC4"
		},
		{
			"bufferView":13,
			"componentType":5126,
			"count":1034,
			"type":"VEC4"
		},
		{
			"bufferView":14,
			"componentType":5123,
			"count":5028,
			"type":"SCALAR"
		},
		{
			"bufferView":15,
			"componentType":5126,
			"count":140,
			"max":[
				5.833333333333333
			],
			"min":[
				0.041666666666666664
			],
			"type":"SCALAR"
		},
		{
			"bufferView":16,
			"componentType":5126,
			"count":140,
			"type":"VEC3"
		},
		{
			"bufferView":17,
			"componentType":5126,
			"count":140,
			"type":"VEC4"
		},
		{
			"bufferView":18,
			"componentType":5126,
			"count":2,
			"max":[
				5.833333333333333
			],
			"min":[
				0.041666666666666664
			],
			"type":"SCALAR"
		},
		{
			"bufferView":19,
			"componentType":5126,
			"count":2,
			"type":"VEC3"
		}
	],
	"bufferViews":[
		{
			"buffer":0,
			"byteLength":96,
			"byteOffset":0,
			"target":34962
		},
		{
			"buffer":0,
			"byteLength":96,
			"byteOffset":96,
			"target":34962
		},
		{
			"buffer":0,
			"byteLength":64,
			"byteOffset":192,
			"target":34962
		},
		{
			"buffer":0,
			"byteLength":32,
			"byteOffset":256,
			"target":34962
		},
		{
			"buffer":0,
			"byteLength":128,
			"byteOffset":288,
			"target":34962
		},
		{
			"buffer":0,
			"byteLength":24,
			"byteOffset":416,
			"target":34963
		},
		{
			"buffer":0,
			"byteLength":64,
			"byteOffset":440
		},
		{
			"buffer":0,
			"byteLength":12408,
			"byteOffset":504,
			"target":34962
		},
		{
			"buffer":0,
			"byteLength":12408,
			"byteOffset":12912,
			"target":34962
		},
		{
			"buffer":0,
			"byteLength":8272,
			"byteOffset":25320,
			"target":34962
		},
		{
			"buffer":0,
			"byteLength":8272,
			"byteOffset":33592,
			"target":34962
		},
		{
			"buffer":0,
			"byteLength":8272,
			"byteOffset":41864,
			"target":34962
		},
		{
			"buffer":0,
			"byteLength":4136,
			"byteOffset":50136,
			"target":34962
		},
		{
			"buffer":0,
			"byteLength":16544,
			"byteOffset":54272,
			"target":34962
		},
		{
			"buffer":0,
			"byteLength":10056,
			"byteOffset":70816,
			"target":34963
		},
		{
			"buffer":0,
			"byteLength":560,
			"byteOffset":80872
		},
		{
			"buffer":0,
			"byteLength":1680,
			"byteOffset":81432
		},
		{
			"buffer":0,
			"byteLength":2240,
			"byteOffset":83112
		},
		{
			"buffer":0,
			"byteLength":8,
			"byteOffset":85352
		},
		{
			"buffer":0,
			"byteLength":24,
			"byteOffset":85360
		}
	],
	"samplers":[
		{
			"magFilter":9729,
			"minFilter":9987
		}
	],
	"buffers":[
		{
			"byteLength":85384,
			"uri":"thermometer.bin"
		}
	]
}
