{
	"asset":{
		"generator":"Khronos glTF Blender I/O v4.4.55",
		"version":"2.0"
	},
	"extensionsUsed":[
		"KHR_materials_specular"
	],
	"scene":0,
	"scenes":[
		{
			"name":"Scene",
			"nodes":[
				2
			]
		}
	],
	"nodes":[
		{
			"name":"Bone",
			"rotation":[
				0.08684633672237396,
				0.7017533183097839,
				-0.08684633672237396,
				0.7017533183097839
			],
			"translation":[
				0.015516579151153564,
				0.048227183520793915,
				0.0392439179122448
			]
		},
		{
			"mesh":0,
			"name":"mk_thermometer",
			"skin":0
		},
		{
			"children":[
				1,
				0
			],
			"name":"mk_thermometer_rig",
			"translation":[
				-0.08657211810350418,
				0.07690183073282242,
				0
			]
		}
	],
	"animations":[
		{
			"channels":[
				{
					"sampler":0,
					"target":{
						"node":0,
						"path":"translation"
					}
				},
				{
					"sampler":1,
					"target":{
						"node":0,
						"path":"rotation"
					}
				},
				{
					"sampler":2,
					"target":{
						"node":0,
						"path":"scale"
					}
				}
			],
			"name":"Extractors",
			"samplers":[
				{
					"input":9,
					"interpolation":"STEP",
					"output":10
				},
				{
					"input":9,
					"interpolation":"STEP",
					"output":11
				},
				{
					"input":9,
					"interpolation":"STEP",
					"output":12
				}
			]
		},
		{
			"channels":[
				{
					"sampler":0,
					"target":{
						"node":0,
						"path":"translation"
					}
				},
				{
					"sampler":1,
					"target":{
						"node":0,
						"path":"rotation"
					}
				},
				{
					"sampler":2,
					"target":{
						"node":0,
						"path":"scale"
					}
				}
			],
			"name":"tabletAnim",
			"samplers":[
				{
					"input":13,
					"interpolation":"STEP",
					"output":14
				},
				{
					"input":13,
					"interpolation":"STEP",
					"output":15
				},
				{
					"input":13,
					"interpolation":"STEP",
					"output":16
				}
			]
		},
		{
			"channels":[
				{
					"sampler":0,
					"target":{
						"node":0,
						"path":"translation"
					}
				},
				{
					"sampler":1,
					"target":{
						"node":0,
						"path":"rotation"
					}
				},
				{
					"sampler":2,
					"target":{
						"node":0,
						"path":"scale"
					}
				}
			],
			"name":"Take 001_Armature.004",
			"samplers":[
				{
					"input":17,
					"interpolation":"STEP",
					"output":18
				},
				{
					"input":17,
					"interpolation":"STEP",
					"output":19
				},
				{
					"input":17,
					"interpolation":"STEP",
					"output":20
				}
			]
		},
		{
			"channels":[
				{
					"sampler":0,
					"target":{
						"node":0,
						"path":"translation"
					}
				},
				{
					"sampler":1,
					"target":{
						"node":0,
						"path":"rotation"
					}
				},
				{
					"sampler":2,
					"target":{
						"node":0,
						"path":"scale"
					}
				}
			],
			"name":"tempAnim",
			"samplers":[
				{
					"input":21,
					"interpolation":"LINEAR",
					"output":22
				},
				{
					"input":21,
					"interpolation":"LINEAR",
					"output":23
				},
				{
					"input":24,
					"interpolation":"STEP",
					"output":25
				}
			]
		}
	],
	"materials":[
		{
			"doubleSided":true,
			"emissiveFactor":[
				0.20000000298023224,
				0.20000000298023224,
				0.20000000298023224
			],
			"emissiveTexture":{
				"index":0,
				"texCoord":1
			},
			"extensions":{
				"KHR_materials_specular":{
					"specularColorFactor":[
						2.0,
						2.0,
						2.0
					]
				}
			},
			"name":"ColorAtlas_Thermometer",
			"pbrMetallicRoughness":{
				"baseColorTexture":{
					"index":1,
					"texCoord":1
				},
				"metallicRoughnessTexture":{
					"index":2,
					"texCoord":2
				}
			}
		}
	],
	"meshes":[
		{
			"name":"Cube.034",
			"primitives":[
				{
					"attributes":{
						"POSITION":0,
						"NORMAL":1,
						"TEXCOORD_0":2,
						"TEXCOORD_1":3,
						"TEXCOORD_2":4,
						"JOINTS_0":5,
						"WEIGHTS_0":6
					},
					"indices":7,
					"material":0
				}
			]
		}
	],
	"textures":[
		{
			"sampler":0,
			"source":0
		},
		{
			"sampler":0,
			"source":0
		},
		{
			"sampler":0,
			"source":1
		}
	],
	"images":[
		{
			"mimeType":"image/png",
			"name":"AtlasColorTexture",
			"uri":"thermometerTextures/AtlasColorTexture.png"
		},
		{
			"mimeType":"image/png",
			"name":"AtlasGrayTexture",
			"uri":"thermometerTextures/AtlasGrayTexture.png"
		}
	],
	"skins":[
		{
			"inverseBindMatrices":8,
			"joints":[
				0
			],
			"name":"mk_thermometer_rig"
		}
	],
	"accessors":[
		{
			"bufferView":0,
			"componentType":5126,
			"count":1042,
			"max":[
				-0.06577500700950623,
				0.13283145427703857,
				0.0700245127081871
			],
			"min":[
				-0.08071181923151016,
				0.08746809512376785,
				0.009381099604070187
			],
			"type":"VEC3"
		},
		{
			"bufferView":1,
			"componentType":5126,
			"count":1042,
			"type":"VEC3"
		},
		{
			"bufferView":2,
			"componentType":5126,
			"count":1042,
			"type":"VEC2"
		},
		{
			"bufferView":3,
			"componentType":5126,
			"count":1042,
			"type":"VEC2"
		},
		{
			"bufferView":4,
			"componentType":5126,
			"count":1042,
			"type":"VEC2"
		},
		{
			"bufferView":5,
			"componentType":5121,
			"count":1042,
			"type":"VEC4"
		},
		{
			"bufferView":6,
			"componentType":5126,
			"count":1042,
			"type":"VEC4"
		},
		{
			"bufferView":7,
			"componentType":5123,
			"count":5040,
			"type":"SCALAR"
		},
		{
			"bufferView":8,
			"componentType":5126,
			"count":1,
			"type":"MAT4"
		},
		{
			"bufferView":9,
			"componentType":5126,
			"count":2,
			"max":[
				6.25
			],
			"min":[
				0.041666666666666664
			],
			"type":"SCALAR"
		},
		{
			"bufferView":10,
			"componentType":5126,
			"count":2,
			"type":"VEC3"
		},
		{
			"bufferView":11,
			"componentType":5126,
			"count":2,
			"type":"VEC4"
		},
		{
			"bufferView":12,
			"componentType":5126,
			"count":2,
			"type":"VEC3"
		},
		{
			"bufferView":13,
			"componentType":5126,
			"count":2,
			"max":[
				0.8333333333333334
			],
			"min":[
				0.041666666666666664
			],
			"type":"SCALAR"
		},
		{
			"bufferView":14,
			"componentType":5126,
			"count":2,
			"type":"VEC3"
		},
		{
			"bufferView":15,
			"componentType":5126,
			"count":2,
			"type":"VEC4"
		},
		{
			"bufferView":16,
			"componentType":5126,
			"count":2,
			"type":"VEC3"
		},
		{
			"bufferView":17,
			"componentType":5126,
			"count":2,
			"max":[
				27.666666666666668
			],
			"min":[
				21.666666666666668
			],
			"type":"SCALAR"
		},
		{
			"bufferView":18,
			"componentType":5126,
			"count":2,
			"type":"VEC3"
		},
		{
			"bufferView":19,
			"componentType":5126,
			"count":2,
			"type":"VEC4"
		},
		{
			"bufferView":20,
			"componentType":5126,
			"count":2,
			"type":"VEC3"
		},
		{
			"bufferView":21,
			"componentType":5126,
			"count":190,
			"max":[
				7.916666666666667
			],
			"min":[
				0.041666666666666664
			],
			"type":"SCALAR"
		},
		{
			"bufferView":22,
			"componentType":5126,
			"count":190,
			"type":"VEC3"
		},
		{
			"bufferView":23,
			"componentType":5126,
			"count":190,
			"type":"VEC4"
		},
		{
			"bufferView":24,
			"componentType":5126,
			"count":2,
			"max":[
				7.916666666666667
			],
			"min":[
				0.041666666666666664
			],
			"type":"SCALAR"
		},
		{
			"bufferView":25,
			"componentType":5126,
			"count":2,
			"type":"VEC3"
		}
	],
	"bufferViews":[
		{
			"buffer":0,
			"byteLength":12504,
			"byteOffset":0,
			"target":34962
		},
		{
			"buffer":0,
			"byteLength":12504,
			"byteOffset":12504,
			"target":34962
		},
		{
			"buffer":0,
			"byteLength":8336,
			"byteOffset":25008,
			"target":34962
		},
		{
			"buffer":0,
			"byteLength":8336,
			"byteOffset":33344,
			"target":34962
		},
		{
			"buffer":0,
			"byteLength":8336,
			"byteOffset":41680,
			"target":34962
		},
		{
			"buffer":0,
			"byteLength":4168,
			"byteOffset":50016,
			"target":34962
		},
		{
			"buffer":0,
			"byteLength":16672,
			"byteOffset":54184,
			"target":34962
		},
		{
			"buffer":0,
			"byteLength":10080,
			"byteOffset":70856,
			"target":34963
		},
		{
			"buffer":0,
			"byteLength":64,
			"byteOffset":80936
		},
		{
			"buffer":0,
			"byteLength":8,
			"byteOffset":81000
		},
		{
			"buffer":0,
			"byteLength":24,
			"byteOffset":81008
		},
		{
			"buffer":0,
			"byteLength":32,
			"byteOffset":81032
		},
		{
			"buffer":0,
			"byteLength":24,
			"byteOffset":81064
		},
		{
			"buffer":0,
			"byteLength":8,
			"byteOffset":81088
		},
		{
			"buffer":0,
			"byteLength":24,
			"byteOffset":81096
		},
		{
			"buffer":0,
			"byteLength":32,
			"byteOffset":81120
		},
		{
			"buffer":0,
			"byteLength":24,
			"byteOffset":81152
		},
		{
			"buffer":0,
			"byteLength":8,
			"byteOffset":81176
		},
		{
			"buffer":0,
			"byteLength":24,
			"byteOffset":81184
		},
		{
			"buffer":0,
			"byteLength":32,
			"byteOffset":81208
		},
		{
			"buffer":0,
			"byteLength":24,
			"byteOffset":81240
		},
		{
			"buffer":0,
			"byteLength":760,
			"byteOffset":81264
		},
		{
			"buffer":0,
			"byteLength":2280,
			"byteOffset":82024
		},
		{
			"buffer":0,
			"byteLength":3040,
			"byteOffset":84304
		},
		{
			"buffer":0,
			"byteLength":8,
			"byteOffset":87344
		},
		{
			"buffer":0,
			"byteLength":24,
			"byteOffset":87352
		}
	],
	"samplers":[
		{
			"magFilter":9729,
			"minFilter":9987
		}
	],
	"buffers":[
		{
			"byteLength":87376,
			"uri":"thermometer.bin"
		}
	]
}
